<svg version="1.1" xmlns="http://www.w3.org/2000/svg" style="display: block;" viewBox="0 0 2048 2048" width="512" height="512" preserveAspectRatio="none">
<defs>
	<linearGradient id="Gradient1" gradientUnits="userSpaceOnUse" x1="834.907" y1="674.612" x2="768.749" y2="520.251">
		<stop class="stop0" offset="0" stop-opacity="1" stop-color="rgb(213,31,41)"/>
		<stop class="stop1" offset="1" stop-opacity="1" stop-color="rgb(255,47,58)"/>
	</linearGradient>
</defs>
<path transform="translate(0,0)" fill="rgb(254,197,122)" d="M 1027.02 612.151 C 1050.12 614.179 1063.75 632.311 1080.57 646.491 C 1103.28 665.634 1151.63 702.896 1169.59 725.048 C 1176.13 736.259 1179.69 748.726 1175.44 761.465 L 1175.44 761.465 L 1179.92 761.465 C 1197.09 758.949 1216.43 762.544 1233.65 764.487 C 1396.76 782.895 1778.74 871.798 1808.18 1069.22 C 1813.89 1107.53 1787.44 1213.19 1761.62 1243.12 C 1508.92 1705.69 717.161 1711.99 376.075 1361.94 C 341.935 1326.9 310.57 1286.85 288.279 1243.12 C 284.019 1238.04 265.13 1197.5 261.948 1190.13 C 158.928 951.428 470.689 833.048 648.953 791.532 C 675.996 785.234 702.944 777.753 730.739 775.681 C 751.895 758.881 793.191 706.888 818.495 704.798 C 833.765 709.84 860.968 732.766 876.921 743.306 L 876.921 737.386 C 883.826 714.325 932.344 679.858 950.433 663.947 C 975.685 641.735 993.214 612.248 1027.02 612.151 z"/>
<path transform="translate(0,0)" fill="rgb(249,42,49)" d="M 1303.36 860.728 C 1317.33 874.428 1326.42 886.8 1322.22 906.742 C 1306.33 921.698 1269.61 929.189 1259.89 949.85 C 1298.31 974.718 1362.82 986.434 1406.89 1002.58 L 1406.89 999.619 C 1407.27 995.415 1409.07 990.542 1409.95 986.317 C 1418.93 985.888 1428.96 981.727 1437.77 979.577 C 1450.29 976.524 1525.61 970.647 1534.43 976.005 L 1534.43 972.731 C 1536.9 975.97 1539.5 979.162 1541.75 982.552 C 1545.37 980.319 1548.97 977.857 1552.8 976.005 C 1578.34 978.076 1599.98 1011.52 1616.18 1028.39 C 1625.63 1038.23 1641.37 1049.44 1647.35 1061.74 C 1679.07 1091.35 1621.75 1139.6 1606.96 1174.81 L 1606.96 1174.81 C 1611.43 1181.57 1613.06 1187.9 1614.57 1195.71 C 1606.43 1220.72 1570.33 1250.79 1552.23 1269.98 C 1526.63 1297.12 1496.55 1341.97 1459.52 1349.04 C 1429.82 1345.15 1422.73 1333.85 1402.77 1313.15 L 1358.43 1267.08 C 1348.1 1256.18 1338.06 1244.66 1326.91 1234.59 L 1325.58 1233.4 C 1326.02 1256.97 1345.47 1258.34 1317.83 1290.34 C 1303.18 1307.29 1287.85 1323.57 1273.43 1340.74 C 1251.98 1366.29 1224.76 1413.25 1189.6 1417.74 C 1156.68 1418.8 1137.45 1384.24 1115.82 1361.56 C 1091.34 1335.88 1048.25 1298.53 1033.11 1266.48 L 1033.11 1266.48 L 1033.11 1247.64 C 1032.16 1240.82 1029.68 1234.63 1027.02 1228.34 C 999.327 1208.7 953.241 1150.34 928.195 1121 C 925.259 1117.54 921.825 1115.92 917.856 1113.92 C 887.068 1086.47 859.553 1054.09 830.318 1024.93 C 828.59 1022.03 826.494 1020.18 823.967 1017.97 C 814.933 1008.01 804.719 999.131 794.818 990.05 C 799.332 976.587 805.447 961.206 813.943 949.85 C 843.324 946.994 921.692 959.839 952.998 964.399 L 952.998 964.399 L 954.035 965.538 C 1005.13 975.921 1041.14 930.523 1060.19 928.568 L 1060.19 928.568 C 1064.37 929.602 1068.52 930.704 1072.77 931.405 L 1146.93 1005.97 C 1156.26 1015.4 1166.64 1023.98 1175.44 1033.9 C 1183.47 1021.27 1188.67 935.975 1191.14 915.045 L 1191.14 915.045 C 1191.28 909.082 1191.27 903.152 1191.14 897.189 C 1222.02 883.382 1277.44 879.283 1299.83 864.882 C 1300.79 863.42 1302.21 862.058 1303.36 860.728 z"/>
<path transform="translate(0,0)" fill="rgb(223,31,41)" d="M 952.998 964.399 L 954.035 965.538 C 1005.13 975.921 1041.14 930.523 1060.19 928.568 C 1069.47 938.751 1067.8 962.742 1069.3 975.834 L 1078.96 1064.87 C 1079.04 1072.17 1079.27 1079.5 1078.96 1086.8 L 1078.96 1086.8 C 1072.07 1122.13 1059 1196.67 1047.08 1228.34 C 1040.42 1228.64 1033.65 1229.28 1027.02 1228.34 C 999.327 1208.7 953.241 1150.34 928.195 1121 C 925.259 1117.54 921.825 1115.92 917.856 1113.92 C 887.068 1086.47 859.553 1054.09 830.318 1024.93 C 828.59 1022.03 826.494 1020.18 823.967 1017.97 C 814.933 1008.01 804.719 999.131 794.818 990.05 C 799.332 976.587 805.447 961.206 813.943 949.85 C 843.324 946.994 921.692 959.839 952.998 964.399 L 952.998 964.399 z"/>
<path transform="translate(0,0)" fill="rgb(249,42,49)" d="M 952.998 964.399 L 954.035 965.538 C 1005.13 975.921 1041.14 930.523 1060.19 928.568 C 1069.47 938.751 1067.8 962.742 1069.3 975.834 L 1078.96 1064.87 C 1079.04 1072.17 1079.27 1079.5 1078.96 1086.8 L 1078.96 1086.8 C 1022.72 1081.87 966.649 1070.26 910.155 1068.33 C 909.883 1076.25 910.231 1084.23 910.356 1092.16 L 908.827 1092.75 C 903.916 1088.96 904.053 1083.09 904.373 1077.3 C 905.987 1048.13 924.127 1035.76 944.046 1017.97 C 946.349 1000 950.246 982.3 952.998 964.399 L 952.998 964.399 z"/>
<path transform="translate(0,0)" fill="rgb(223,31,41)" d="M 1299.83 1174.81 C 1353.43 1185.41 1408.3 1187.63 1461.77 1200.33 C 1464.18 1239.74 1461.34 1307.12 1459.52 1349.04 C 1429.82 1345.15 1422.73 1333.85 1402.77 1313.15 L 1358.43 1267.08 C 1348.1 1256.18 1338.06 1244.66 1326.91 1234.59 L 1325.58 1233.4 C 1308.85 1209.67 1296.38 1210.54 1299.83 1174.81 z"/>
<path transform="translate(0,0)" fill="rgb(223,31,41)" d="M 1039.7 1247.64 C 1050.57 1248.54 1184.91 1267.55 1193.81 1271.35 C 1193.77 1294.55 1193.92 1397.42 1189.6 1417.74 C 1156.68 1418.8 1137.45 1384.24 1115.82 1361.56 C 1091.34 1335.88 1048.25 1298.53 1033.11 1266.48 C 1033.71 1259.54 1036.62 1253.74 1039.7 1247.64 z"/>
<path transform="translate(0,0)" fill="rgb(223,31,41)" d="M 1259.89 986.317 C 1256.64 976.772 1247.56 956.564 1259.89 949.85 C 1298.31 974.718 1362.82 986.434 1406.89 1002.58 C 1402.11 1025.27 1406.71 1060.99 1397.98 1078.17 C 1394.27 1085.48 1376.3 1105.09 1367.34 1104.36 L 1364.45 1101.7 C 1359.83 1093.77 1355.25 1088.33 1348.02 1082.65 C 1337.16 1065.1 1277.91 1001.67 1259.89 986.317 z"/>
<path transform="translate(0,0)" fill="rgb(255,88,91)" d="M 1193.81 1124.16 C 1213.06 1134.13 1226.83 1150.16 1243.42 1163.62 L 1244.3 1164.58 C 1259.07 1180.2 1346.07 1237.5 1303.55 1250.37 C 1286.32 1255.59 1208.02 1273.54 1193.81 1271.35 C 1202.3 1222.39 1190.63 1173.1 1193.81 1124.16 z"/>
<path transform="translate(0,0)" fill="rgb(255,88,91)" d="M 1466.86 1040.99 C 1496.44 1053.24 1517.77 1078.82 1539.4 1101.42 L 1597 1161.78 C 1553.89 1170.91 1505.67 1156.35 1465.28 1190.27 C 1461.35 1152.98 1464.47 1077.97 1466.86 1040.99 z"/>
<path transform="translate(0,0)" fill="rgb(255,88,91)" d="M 1060.19 928.568 C 1064.37 929.602 1068.52 930.704 1072.77 931.405 L 1146.93 1005.97 C 1156.26 1015.4 1166.64 1023.98 1175.44 1033.9 C 1185.26 1041.64 1196.33 1050.52 1202.37 1061.74 C 1181.9 1063.18 1172.02 1058.7 1152.86 1057.22 C 1127.66 1055.26 1103.5 1060.11 1078.96 1064.87 L 1069.3 975.834 C 1067.8 962.742 1069.47 938.751 1060.19 928.568 L 1060.19 928.568 z"/>
<path transform="translate(0,0)" fill="rgb(255,88,91)" d="M 1243.42 980.63 C 1249.11 982.057 1254.44 984.158 1259.89 986.317 C 1277.91 1001.67 1337.16 1065.1 1348.02 1082.65 C 1318.12 1082.56 1279.78 1095.95 1252.48 1107.57 C 1248.88 1070.02 1242.43 1015.63 1243.42 980.63 z"/>
<path transform="translate(0,0)" fill="rgb(255,88,91)" d="M 1552.8 976.005 C 1578.34 978.076 1599.98 1011.52 1616.18 1028.39 C 1625.63 1038.23 1641.37 1049.44 1647.35 1061.74 L 1647.35 1064.87 C 1626.88 1056.01 1568.58 1075.35 1544.66 1077.92 C 1547.14 1054.88 1558.89 998.188 1556.48 977.733 L 1552.8 976.005 z"/>
<path transform="translate(0,0)" fill="rgb(255,105,109)" d="M 1078.96 1064.87 C 1103.5 1060.11 1127.66 1055.26 1152.86 1057.22 C 1172.02 1058.7 1181.9 1063.18 1202.37 1061.74 C 1205.37 1065.8 1207.48 1069.68 1209.59 1074.24 C 1191.52 1078.76 1100.67 1088.1 1078.96 1086.8 C 1079.27 1079.5 1079.04 1072.17 1078.96 1064.87 z"/>
<path transform="translate(0,0)" fill="rgb(255,105,109)" d="M 1465.28 1190.27 C 1505.67 1156.35 1553.89 1170.91 1597 1161.78 C 1600.78 1165.9 1603.84 1170.19 1606.96 1174.81 L 1606.96 1174.81 C 1588.41 1186.96 1500.17 1190.44 1465.28 1200.33 C 1465.13 1197 1465.27 1193.61 1465.28 1190.27 z"/>
<path transform="translate(0,0)" fill="rgb(255,105,109)" d="M 1409.95 986.317 C 1418.93 985.888 1428.96 981.727 1437.77 979.577 C 1450.29 976.524 1525.61 970.647 1534.43 976.005 C 1533.22 990.566 1528.32 996.424 1513.92 998.466 C 1492.83 1001.46 1428.11 1001.6 1406.89 999.619 C 1407.27 995.415 1409.07 990.542 1409.95 986.317 z"/>
<path transform="translate(0,0)" fill="rgb(255,105,109)" d="M 1191.14 897.189 C 1222.02 883.382 1277.44 879.283 1299.83 864.882 C 1311.79 883.601 1305.76 890.937 1285.04 896.408 C 1271.02 900.107 1201.53 915.372 1191.14 915.045 C 1191.28 909.082 1191.27 903.152 1191.14 897.189 z"/>
<path transform="translate(0,0)" fill="rgb(255,105,109)" d="M 1348.02 1082.65 C 1355.25 1088.33 1359.83 1093.77 1364.45 1101.7 C 1326.72 1104.5 1290.15 1118.58 1252.48 1121 C 1252.77 1116.51 1253.33 1112.02 1252.48 1107.57 C 1279.78 1095.95 1318.12 1082.56 1348.02 1082.65 z"/>
<path transform="translate(0,0)" fill="rgb(255,105,109)" d="M 1544.66 1077.92 C 1568.58 1075.35 1626.88 1056.01 1647.35 1064.87 C 1651.68 1091.59 1607.66 1086.83 1590.65 1088.66 C 1574.34 1090.42 1558.15 1093.4 1541.75 1094.32 L 1544.66 1077.92 z"/>
<path transform="translate(0,0)" fill="rgb(223,31,41)" d="M 1182.26 1121 C 1205.64 1119.69 1229.22 1122.83 1252.48 1121 C 1249.54 1134.82 1248.19 1150.41 1243.42 1163.62 C 1226.83 1150.16 1213.06 1134.13 1193.81 1124.16 C 1179.14 1113.9 1166.57 1145.83 1152.01 1148.12 L 1151.29 1147.2 C 1155.34 1142.53 1176.8 1124.78 1182.26 1121 z"/>
<path transform="translate(0,0)" fill="rgb(255,163,136)" d="M 1047.08 1228.34 C 1065.1 1225.73 1050.62 1231.98 1039.7 1247.64 C 1036.62 1253.74 1033.71 1259.54 1033.11 1266.48 L 1033.11 1266.48 L 1033.11 1247.64 C 1032.16 1240.82 1029.68 1234.63 1027.02 1228.34 C 1033.65 1229.28 1040.42 1228.64 1047.08 1228.34 z"/>
<path transform="translate(0,0)" fill="rgb(249,42,49)" d="M 1027.02 612.151 C 1050.12 614.179 1063.75 632.311 1080.57 646.491 C 1103.28 665.634 1151.63 702.896 1169.59 725.048 C 1176.13 736.259 1179.69 748.726 1175.44 761.465 L 1175.44 761.465 C 1178 762.907 1182.43 764.648 1183.7 767.184 C 1174.62 785.051 1188.53 870.072 1191.14 897.189 C 1191.27 903.152 1191.28 909.082 1191.14 915.045 L 1191.14 915.045 C 1188.67 935.975 1183.47 1021.27 1175.44 1033.9 C 1166.64 1023.98 1156.26 1015.4 1146.93 1005.97 L 1072.77 931.405 C 1068.52 930.704 1064.37 929.602 1060.19 928.568 L 1060.19 928.568 C 1041.14 930.523 1005.13 975.921 954.035 965.538 L 952.998 964.399 L 952.998 964.399 C 921.692 959.839 843.324 946.994 813.943 949.85 C 805.447 961.206 799.332 976.587 794.818 990.05 C 804.719 999.131 814.933 1008.01 823.967 1017.97 C 809.639 1026.48 797.857 1037.3 784.364 1046.76 L 766.708 1061.74 C 762.992 1066.75 761.342 1072.62 758.207 1077.92 C 740.145 1129.97 728.59 1143.63 672.684 1113.92 C 644.395 1103.06 624.447 1081.51 597.86 1068.33 C 586.409 1065.12 579.026 1072.45 570.992 1071.66 C 566.061 1068.59 561.483 1065.26 556.873 1061.74 C 553.171 1058.14 551.839 1054.54 550.104 1049.82 C 540.134 1039.32 545.7 1025.75 550.104 1014 C 564.541 987.043 600.841 884.167 623.086 873.045 C 646.448 867.766 671.239 878.638 694.532 881.948 C 686.763 867.448 677.658 851.752 676.982 834.938 C 684.346 811.087 715.385 795.04 730.739 775.681 C 751.895 758.881 793.191 706.888 818.495 704.798 C 833.765 709.84 860.968 732.766 876.921 743.306 L 876.921 737.386 C 883.826 714.325 932.344 679.858 950.433 663.947 C 975.685 641.735 993.214 612.248 1027.02 612.151 z"/>
<path transform="translate(0,0)" fill="rgb(223,31,41)" d="M 1027.02 612.151 C 1050.12 614.179 1063.75 632.311 1080.57 646.491 C 1103.28 665.634 1151.63 702.896 1169.59 725.048 C 1176.13 736.259 1179.69 748.726 1175.44 761.465 L 1175.44 761.465 C 1178 762.907 1182.43 764.648 1183.7 767.184 C 1174.62 785.051 1188.53 870.072 1191.14 897.189 C 1191.27 903.152 1191.28 909.082 1191.14 915.045 L 1191.14 915.045 C 1188.67 935.975 1183.47 1021.27 1175.44 1033.9 C 1166.64 1023.98 1156.26 1015.4 1146.93 1005.97 L 1072.77 931.405 C 1068.52 930.704 1064.37 929.602 1060.19 928.568 L 1060.19 928.568 C 1041.14 930.523 1005.13 975.921 954.035 965.538 L 952.998 964.399 C 957.025 930.602 942.777 883.273 944.046 848.014 C 939.769 840.453 933.644 833.918 928.195 827.178 C 901.704 834.081 879.226 859.002 859.279 876.993 C 862.857 868.53 869.212 861.455 872.547 853.334 C 864.58 855.91 856.357 856.556 848.033 855.839 C 847.939 850.928 848.027 846.002 848.033 841.089 C 877.786 821.534 880.929 837.952 905.131 800.092 C 892.868 783.809 877.118 764.524 876.921 743.306 L 876.921 737.386 C 883.826 714.325 932.344 679.858 950.433 663.947 C 975.685 641.735 993.214 612.248 1027.02 612.151 z"/>
<path transform="translate(0,0)" fill="rgb(249,42,49)" d="M 1027.02 612.151 C 1050.12 614.179 1063.75 632.311 1080.57 646.491 C 1103.28 665.634 1151.63 702.896 1169.59 725.048 C 1164.22 730.097 1166.59 738.43 1161.06 743.02 C 1158.03 745.535 1048.86 763.101 1039.7 761.465 L 1039.7 761.465 C 1027.97 755.828 892.168 733.342 876.921 737.386 C 883.826 714.325 932.344 679.858 950.433 663.947 C 975.685 641.735 993.214 612.248 1027.02 612.151 z"/>
<path transform="translate(0,0)" fill="rgb(255,88,91)" d="M 1027.02 612.151 C 1050.12 614.179 1063.75 632.311 1080.57 646.491 C 1103.28 665.634 1151.63 702.896 1169.59 725.048 C 1164.22 730.097 1166.59 738.43 1161.06 743.02 C 1158.03 745.535 1048.86 763.101 1039.7 761.465 C 1039.65 725.087 1023.35 637.375 1027.02 612.151 z"/>
<path transform="translate(0,0)" fill="rgb(249,42,49)" d="M 1169.59 725.048 C 1176.13 736.259 1179.69 748.726 1175.44 761.465 C 1173.78 764.27 1172.29 767.815 1169.59 769.694 C 1145.35 777.351 1083.21 838.582 1059.14 862.427 C 1048.74 872.737 1038.76 884.878 1027.02 893.602 C 1024.59 860.467 1034.19 796.064 1039.7 761.465 L 1039.7 761.465 C 1048.86 763.101 1158.03 745.535 1161.06 743.02 C 1166.59 738.43 1164.22 730.097 1169.59 725.048 z"/>
<path transform="translate(0,0)" fill="rgb(249,42,49)" d="M 1169.59 769.694 C 1172.29 767.815 1173.78 764.27 1175.44 761.465 L 1175.44 761.465 C 1178 762.907 1182.43 764.648 1183.7 767.184 C 1174.62 785.051 1188.53 870.072 1191.14 897.189 C 1191.27 903.152 1191.28 909.082 1191.14 915.045 L 1191.14 915.045 C 1167.4 906.232 1081.49 893.041 1060.19 893.602 C 1075.38 870.843 1098.73 852.665 1117.49 832.755 C 1136.36 812.73 1152.56 791.189 1169.59 769.694 z"/>
<path transform="translate(0,0)" fill="rgb(255,105,109)" d="M 944.046 848.014 C 961.002 869.829 1010.14 927.238 1043.44 906.742 C 1047.72 914.949 1055.17 920.939 1060.19 928.568 L 1060.19 928.568 C 1041.14 930.523 1005.13 975.921 954.035 965.538 L 952.998 964.399 C 957.025 930.602 942.777 883.273 944.046 848.014 z"/>
<path transform="translate(0,0)" fill="rgb(255,105,109)" d="M 905.131 800.092 C 909.37 805.12 913.824 810.069 917.856 815.258 C 901.588 822.701 881.784 837.308 872.547 853.334 C 864.58 855.91 856.357 856.556 848.033 855.839 C 847.939 850.928 848.027 846.002 848.033 841.089 C 877.786 821.534 880.929 837.952 905.131 800.092 z"/>
<path transform="translate(0,0)" fill="rgb(254,197,122)" d="M 1043.44 906.742 L 1045.98 905.606 C 1055.86 910.611 1065.24 923.263 1072.77 931.405 C 1068.52 930.704 1064.37 929.602 1060.19 928.568 C 1055.17 920.939 1047.72 914.949 1043.44 906.742 z"/>
<path transform="translate(0,0)" fill="rgb(249,42,49)" d="M 730.739 775.681 C 751.895 758.881 793.191 706.888 818.495 704.798 C 833.765 709.84 860.968 732.766 876.921 743.306 C 877.118 764.524 892.868 783.809 905.131 800.092 C 880.929 837.952 877.786 821.534 848.033 841.089 C 848.027 846.002 847.939 850.928 848.033 855.839 L 848.033 885.968 C 835.246 903.524 819.932 908.29 813.943 931.405 C 809.506 924.851 806.199 918.421 798.744 915.045 C 790.108 907.644 780.865 905.25 770.192 902.235 C 745.583 896.633 717.65 891.918 694.532 881.948 C 686.763 867.448 677.658 851.752 676.982 834.938 C 684.346 811.087 715.385 795.04 730.739 775.681 z"/>
<path transform="translate(0,0)" fill="rgb(223,31,41)" d="M 676.982 834.938 C 698.036 836.426 719.385 840.282 740.438 842.648 L 817.968 851.679 C 827.293 852.799 839.304 852.72 848.033 855.839 L 848.033 885.968 C 835.246 903.524 819.932 908.29 813.943 931.405 C 809.506 924.851 806.199 918.421 798.744 915.045 C 790.108 907.644 780.865 905.25 770.192 902.235 C 745.583 896.633 717.65 891.918 694.532 881.948 C 686.763 867.448 677.658 851.752 676.982 834.938 z"/>
<path transform="translate(0,0)" fill="rgb(255,88,91)" d="M 818.495 704.798 C 833.765 709.84 860.968 732.766 876.921 743.306 C 877.118 764.524 892.868 783.809 905.131 800.092 C 880.929 837.952 877.786 821.534 848.033 841.089 C 844.42 831.015 842.802 819.867 840.672 809.402 L 830.51 760.127 C 827.694 747.057 817.924 716.556 818.495 704.798 z"/>
<path transform="translate(0,0)" fill="rgb(249,42,49)" d="M 623.086 873.045 C 646.448 867.766 671.239 878.638 694.532 881.948 C 717.65 891.918 745.583 896.633 770.192 902.235 C 744.572 927.635 708.721 943.264 681.552 969.585 C 683.374 976.167 685.434 981.048 689.951 986.317 C 667.881 988.246 575.555 1036.74 550.104 1049.82 C 540.134 1039.32 545.7 1025.75 550.104 1014 C 564.541 987.043 600.841 884.167 623.086 873.045 z"/>
<path transform="translate(0,0)" fill="rgb(255,88,91)" d="M 623.086 873.045 C 646.448 867.766 671.239 878.638 694.532 881.948 C 717.65 891.918 745.583 896.633 770.192 902.235 C 744.572 927.635 708.721 943.264 681.552 969.585 C 661.861 937.445 641.904 905.73 623.086 873.045 z"/>
<path transform="translate(0,0)" fill="rgb(223,31,41)" d="M 689.951 986.317 L 689.951 990.05 C 698.632 1030.98 704.198 1078.28 716.861 1117.13 C 723.719 1109.96 750.081 1078.04 758.207 1077.92 C 740.145 1129.97 728.59 1143.63 672.684 1113.92 C 644.395 1103.06 624.447 1081.51 597.86 1068.33 C 586.409 1065.12 579.026 1072.45 570.992 1071.66 C 566.061 1068.59 561.483 1065.26 556.873 1061.74 C 553.171 1058.14 551.839 1054.54 550.104 1049.82 C 575.555 1036.74 667.881 988.246 689.951 986.317 z"/>
<path transform="translate(0,0)" fill="rgb(255,105,109)" d="M 770.192 902.235 C 780.865 905.25 790.108 907.644 798.744 915.045 C 759.95 933.982 722.844 975.251 689.951 990.05 L 689.951 986.317 C 685.434 981.048 683.374 976.167 681.552 969.585 C 708.721 943.264 744.572 927.635 770.192 902.235 z"/>
<path transform="translate(0,0)" fill="rgb(254,197,122)" d="M 794.818 990.05 C 804.719 999.131 814.933 1008.01 823.967 1017.97 C 809.639 1026.48 797.857 1037.3 784.364 1046.76 L 766.708 1061.74 C 770.448 1050.4 774.185 1039.11 778.583 1028.01 C 783.302 1015.11 789.049 1002.5 794.818 990.05 z"/>
<path transform="translate(0,0)" fill="rgb(254,166,57)" d="M 288.279 1243.12 C 297.377 1243.43 306.598 1257.58 312.806 1263.56 C 365.386 1314.18 436.694 1346.49 504.072 1371.82 C 698.061 1444.75 956.14 1469.3 1165.68 1452.43 C 1350.44 1437.56 1607.57 1384.72 1744.83 1255.78 C 1749.33 1251.55 1754.68 1244.8 1760.03 1241.98 L 1761.62 1243.12 C 1508.92 1705.69 717.161 1711.99 376.075 1361.94 C 341.935 1326.9 310.57 1286.85 288.279 1243.12 z"/>
<path transform="translate(0,0)" fill="rgb(249,42,49)" d="M 823.967 1017.97 C 826.494 1020.18 828.59 1022.03 830.318 1024.93 C 859.553 1054.09 887.068 1086.47 917.856 1113.92 C 921.825 1115.92 925.259 1117.54 928.195 1121 C 953.241 1150.34 999.327 1208.7 1027.02 1228.34 C 1029.68 1234.63 1032.16 1240.82 1033.11 1247.64 L 1027.02 1247.64 C 1002.79 1251.14 902.5 1270.54 887.114 1266.48 C 848.984 1264.77 756.602 1248.69 726.108 1252.62 C 729.669 1226.48 747.623 1217.68 766.708 1203.09 C 759.6 1195.81 751.554 1189.6 743.236 1183.79 C 742.008 1181.73 740.736 1180.89 738.75 1179.58 C 731.931 1170.42 724.42 1161.95 716.861 1153.41 C 712.625 1150.33 707.602 1147.74 703.106 1145.02 C 694.014 1138.6 667.017 1122.81 672.684 1113.92 C 728.59 1143.63 740.145 1129.97 758.207 1077.92 C 761.342 1072.62 762.992 1066.75 766.708 1061.74 L 784.364 1046.76 C 797.857 1037.3 809.639 1026.48 823.967 1017.97 z"/>
<path transform="translate(0,0)" fill="rgb(255,88,91)" d="M 887.114 1266.48 C 890.498 1242.71 877.506 1143.64 885.197 1134.32 C 895.519 1133.38 1015.55 1233.05 1027.02 1247.64 C 1002.79 1251.14 902.5 1270.54 887.114 1266.48 z"/>
<path transform="translate(0,0)" fill="rgb(255,88,91)" d="M 830.318 1024.93 C 859.553 1054.09 887.068 1086.47 917.856 1113.92 C 909.725 1115.39 883.567 1121.49 878.574 1127.42 L 885.842 1128.9 C 885.409 1128.89 884.977 1128.88 884.545 1128.88 L 882.535 1128.89 C 868.005 1128.92 854.697 1138.16 842.376 1145.02 C 845.107 1118.24 822.626 1042.69 830.318 1024.93 z"/>
<path transform="translate(0,0)" fill="rgb(223,31,41)" d="M 703.106 1145.02 C 749.935 1144.87 793.043 1149.56 838.693 1150.36 C 814.134 1167.21 790.827 1185.64 766.708 1203.09 C 759.6 1195.81 751.554 1189.6 743.236 1183.79 C 742.008 1181.73 740.736 1180.89 738.75 1179.58 C 731.931 1170.42 724.42 1161.95 716.861 1153.41 C 712.625 1150.33 707.602 1147.74 703.106 1145.02 z"/>
<path transform="translate(0,0)" fill="rgb(255,105,109)" d="M 917.856 1113.92 C 921.825 1115.92 925.259 1117.54 928.195 1121 C 925.397 1128.12 922.596 1134.8 917.856 1140.89 C 907.969 1134.71 897.757 1129.5 885.842 1128.9 L 878.574 1127.42 C 883.567 1121.49 909.725 1115.39 917.856 1113.92 z"/>
<path transform="translate(0,0)" fill="rgb(249,42,49)" d="M 392.446 1077.92 C 392.519 1052.16 431.229 1031.3 449.089 1016.5 C 462.51 1005.39 486.006 977.323 504.948 980.63 C 521.99 988.856 534.556 1003.54 550.104 1014 C 545.7 1025.75 540.134 1039.32 550.104 1049.82 C 551.839 1054.54 553.171 1058.14 556.873 1061.74 C 561.483 1065.26 566.061 1068.59 570.992 1071.66 C 579.026 1072.45 586.409 1065.12 597.86 1068.33 C 624.447 1081.51 644.395 1103.06 672.684 1113.92 C 667.017 1122.81 694.014 1138.6 703.106 1145.02 C 707.602 1147.74 712.625 1150.33 716.861 1153.41 C 679.282 1162.66 641.054 1174.28 605.794 1190.27 C 605.822 1193.6 606.009 1197.01 605.794 1200.33 L 605.794 1200.33 L 604.972 1200.33 C 552.284 1197.68 498.803 1190.87 446.563 1183.79 L 446.563 1174.81 C 430.271 1151.72 395.587 1101.35 392.446 1077.92 z"/>
<path transform="translate(0,0)" fill="rgb(255,88,91)" d="M 597.86 1068.33 C 624.447 1081.51 644.395 1103.06 672.684 1113.92 C 667.017 1122.81 694.014 1138.6 703.106 1145.02 C 707.602 1147.74 712.625 1150.33 716.861 1153.41 C 679.282 1162.66 641.054 1174.28 605.794 1190.27 C 605.822 1193.6 606.009 1197.01 605.794 1200.33 C 604.227 1191.78 605 1181.7 604.569 1172.93 L 601.035 1109.64 C 600.5 1101.27 596.672 1074.93 597.86 1068.33 z"/>
<path transform="translate(0,0)" fill="rgb(223,31,41)" d="M 392.446 1077.92 C 431.72 1075.27 468.648 1085.68 507.258 1089.97 C 507.595 1099.08 507.751 1108.01 507.258 1117.13 C 485.014 1139.28 464.482 1145.34 446.563 1174.81 C 430.271 1151.72 395.587 1101.35 392.446 1077.92 z"/>
<path transform="translate(0,0)" fill="rgb(255,88,91)" d="M 504.948 980.63 C 521.99 988.856 534.556 1003.54 550.104 1014 C 545.7 1025.75 540.134 1039.32 550.104 1049.82 C 551.839 1054.54 553.171 1058.14 556.873 1061.74 C 542.363 1066.5 522.818 1069.16 507.258 1071.66 C 507.343 1041.38 506.634 1010.86 504.948 980.63 z"/>
<path transform="translate(0,0)" fill="rgb(255,105,109)" d="M 556.873 1061.74 C 561.483 1065.26 566.061 1068.59 570.992 1071.66 L 567.035 1074.5 C 549.442 1087.22 528.316 1088.64 507.258 1089.97 C 507.47 1083.85 507.389 1077.78 507.258 1071.66 C 522.818 1069.16 542.363 1066.5 556.873 1061.74 z"/>
<path transform="translate(0,0)" fill="rgb(249,42,49)" d="M 716.861 1153.41 C 724.42 1161.95 731.931 1170.42 738.75 1179.58 C 740.736 1180.89 742.008 1181.73 743.236 1183.79 C 747.23 1226.63 699.367 1258.35 671.179 1288.15 L 641.99 1319.39 C 626.513 1336.18 611.553 1353.96 585.74 1349.04 C 594.585 1326.56 606.596 1228.23 604.972 1200.33 L 605.794 1200.33 L 605.794 1200.33 C 606.009 1197.01 605.822 1193.6 605.794 1190.27 C 641.054 1174.28 679.282 1162.66 716.861 1153.41 z"/>
<path transform="translate(0,0)" fill="rgb(255,105,109)" d="M 716.861 1153.41 C 724.42 1161.95 731.931 1170.42 738.75 1179.58 C 732.219 1183.86 612.704 1203.27 605.794 1200.33 L 605.794 1200.33 C 606.009 1197.01 605.822 1193.6 605.794 1190.27 C 641.054 1174.28 679.282 1162.66 716.861 1153.41 z"/>
<path transform="translate(0,0)" fill="rgb(223,31,41)" d="M 446.563 1183.79 C 498.803 1190.87 552.284 1197.68 604.972 1200.33 C 606.596 1228.23 594.585 1326.56 585.74 1349.04 C 555.809 1340.28 523.277 1294.83 502.283 1272.32 C 480.367 1248.82 437.75 1220.51 446.563 1183.79 z"/>
<path transform="translate(0,0)" fill="rgb(223,31,41)" d="M 726.108 1252.62 C 756.602 1248.69 848.984 1264.77 887.114 1266.48 C 887.214 1286.05 886.126 1406.54 876.921 1417.74 C 849.097 1412.32 806.409 1356.98 787.329 1336.74 C 765.14 1313.19 726.856 1285.46 726.108 1252.62 z"/>
<path transform="translate(0,0)" fill="rgb(249,42,49)" d="M 1033.11 1247.64 L 1033.11 1266.48 C 1024.78 1295.03 980.716 1331.61 959.837 1353.32 C 933.435 1380.77 917.078 1411.92 876.921 1417.74 C 886.126 1406.54 887.214 1286.05 887.114 1266.48 C 902.5 1270.54 1002.79 1251.14 1027.02 1247.64 L 1033.11 1247.64 z"/>
<path transform="translate(0,0)" fill="rgb(249,42,49)" d="M 1322.22 906.742 C 1353.41 891.918 1399.47 847.168 1433.71 853.334 L 1418.33 936.638 C 1415.34 952.871 1411.48 969.901 1409.95 986.317 C 1409.07 990.542 1407.27 995.415 1406.89 999.619 L 1406.89 1002.58 C 1362.82 986.434 1298.31 974.718 1259.89 949.85 C 1269.61 929.189 1306.33 921.698 1322.22 906.742 z"/>
<path transform="translate(0,0)" fill="rgb(255,88,91)" d="M 1179.92 761.465 C 1192.41 763.403 1291.02 847.774 1303.36 860.728 C 1302.21 862.058 1300.79 863.42 1299.83 864.882 C 1277.44 879.283 1222.02 883.382 1191.14 897.189 C 1188.53 870.072 1174.62 785.051 1183.7 767.184 C 1182.43 764.648 1178 762.907 1175.44 761.465 L 1179.92 761.465 z"/>
<path transform="translate(0,0)" fill="rgb(255,88,91)" d="M 1433.71 853.334 C 1444.56 860.43 1521.54 954.686 1534.43 972.731 L 1534.43 976.005 C 1525.61 970.647 1450.29 976.524 1437.77 979.577 C 1428.96 981.727 1418.93 985.888 1409.95 986.317 C 1411.48 969.901 1415.34 952.871 1418.33 936.638 L 1433.71 853.334 z"/>
<path transform="translate(0,0)" fill="rgb(249,42,49)" d="M 1182.26 429.007 C 1190.37 427.334 1198.92 427.578 1206.15 432.143 C 1220.1 440.964 1286.59 498.462 1282.79 519.8 C 1274.99 537.495 1209.22 604.652 1197.75 609.356 C 1191.85 611.776 1186.05 611.252 1179.92 612.151 C 1156.88 603.017 1108.9 537.922 1098.59 516.889 C 1094.62 492.01 1126.32 475.772 1142.15 461.516 C 1153.11 451.635 1167.28 432.035 1182.26 429.007 z"/>
<path transform="translate(0,0)" fill="rgb(255,88,91)" d="M 1182.26 429.007 C 1190.37 427.334 1198.92 427.578 1206.15 432.143 C 1220.1 440.964 1286.59 498.462 1282.79 519.8 C 1278.59 516.581 1196.21 513.697 1182.26 511.2 C 1162.86 510.864 1101.31 497.814 1098.59 516.889 C 1094.62 492.01 1126.32 475.772 1142.15 461.516 C 1153.11 451.635 1167.28 432.035 1182.26 429.007 z"/>
<path transform="translate(0,0)" fill="rgb(249,42,49)" d="M 1182.26 429.007 C 1185.55 428.943 1189.46 428.391 1192.47 429.69 C 1192.13 456.763 1183.91 484.081 1182.26 511.2 C 1162.86 510.864 1101.31 497.814 1098.59 516.889 C 1094.62 492.01 1126.32 475.772 1142.15 461.516 C 1153.11 451.635 1167.28 432.035 1182.26 429.007 z"/>
<path transform="translate(0,0)" fill="rgb(223,31,41)" d="M 1098.59 516.889 C 1101.31 497.814 1162.86 510.864 1182.26 511.2 C 1181.94 525.152 1186.01 605.388 1179.92 612.151 C 1156.88 603.017 1108.9 537.922 1098.59 516.889 z"/>
<path transform="translate(0,0)" fill="rgb(249,42,49)" d="M 806.76 505.947 C 834.564 506.16 909.803 513.614 923.79 541.329 C 922.044 564.785 894.316 660.269 863.02 669.323 C 848.319 665.265 772.233 628.448 765.843 623.209 C 751.429 611.392 777.002 522.086 785.337 513.293 C 791.465 506.828 798.35 506.017 806.76 505.947 z"/>
<path transform="translate(0,0)" fill="url(#Gradient1)" d="M 863.02 669.323 C 848.319 665.265 772.233 628.448 765.843 623.209 C 751.429 611.392 777.002 522.086 785.337 513.293 C 791.465 506.828 798.35 506.017 806.76 505.947 C 803.344 512.993 834.01 560.749 838.693 571.827 C 840.418 585.753 834.405 575.317 842.679 579.633 C 849.932 592.963 867.359 652.86 863.02 669.323 z"/>
<path transform="translate(0,0)" fill="rgb(255,88,91)" d="M 806.76 505.947 C 834.564 506.16 909.803 513.614 923.79 541.329 C 909.275 543.272 845.876 579.629 840.973 576.469 L 838.693 571.827 C 834.01 560.749 803.344 512.993 806.76 505.947 z"/>
<path transform="translate(0,0)" fill="rgb(255,88,91)" d="M 1400.75 550.161 C 1419.99 550.381 1457.82 626.068 1465 642.286 C 1469.68 652.866 1468.04 661.151 1459.52 669.323 C 1442.53 682.574 1373.31 723.91 1358.18 725.048 C 1342.93 712.96 1303.16 639.241 1299.83 617.113 C 1300.61 613.028 1301.87 609.363 1303.36 605.487 C 1316.48 591.588 1378.04 556.983 1400.75 550.161 z"/>
<path transform="translate(0,0)" fill="rgb(223,31,41)" d="M 1303.36 605.487 C 1316.69 609.16 1371.25 631.822 1381.86 639.323 L 1381.86 639.323 C 1398.42 645.934 1450.48 657.731 1459.52 669.323 C 1442.53 682.574 1373.31 723.91 1358.18 725.048 C 1342.93 712.96 1303.16 639.241 1299.83 617.113 C 1300.61 613.028 1301.87 609.363 1303.36 605.487 z"/>
<path transform="translate(0,0)" fill="rgb(249,42,49)" d="M 1381.86 639.323 C 1398.42 645.934 1450.48 657.731 1459.52 669.323 C 1442.53 682.574 1373.31 723.91 1358.18 725.048 C 1367.43 703.732 1372.84 664.782 1381.86 639.323 L 1381.86 639.323 z"/>
<path transform="translate(0,0)" fill="rgb(249,42,49)" d="M 1303.36 605.487 C 1316.48 591.588 1378.04 556.983 1400.75 550.161 C 1397.06 575.02 1390.59 616.142 1381.86 639.323 L 1381.86 639.323 C 1371.25 631.822 1316.69 609.16 1303.36 605.487 z"/>
</svg>