<svg version="1.1" xmlns="http://www.w3.org/2000/svg" style="display: block;" viewBox="0 0 2048 2048" width="512" height="512" preserveAspectRatio="none">
<defs>
	<linearGradient id="Gradient1" gradientUnits="userSpaceOnUse" x1="833.249" y1="627.546" x2="836.003" y2="612.031">
		<stop class="stop0" offset="0" stop-opacity="1" stop-color="rgb(135,143,146)"/>
		<stop class="stop1" offset="1" stop-opacity="1" stop-color="rgb(172,175,178)"/>
	</linearGradient>
	<linearGradient id="Gradient2" gradientUnits="userSpaceOnUse" x1="1178.36" y1="732.533" x2="1202.32" y2="702.616">
		<stop class="stop0" offset="0" stop-opacity="1" stop-color="rgb(93,91,94)"/>
		<stop class="stop1" offset="1" stop-opacity="1" stop-color="rgb(109,117,119)"/>
	</linearGradient>
	<linearGradient id="Gradient3" gradientUnits="userSpaceOnUse" x1="1486.5" y1="1579.24" x2="1479.99" y2="1484.86">
		<stop class="stop0" offset="0" stop-opacity="1" stop-color="rgb(156,26,35)"/>
		<stop class="stop1" offset="1" stop-opacity="1" stop-color="rgb(187,57,63)"/>
	</linearGradient>
	<linearGradient id="Gradient4" gradientUnits="userSpaceOnUse" x1="1101.08" y1="685.726" x2="1060.26" y2="673.476">
		<stop class="stop0" offset="0" stop-opacity="1" stop-color="rgb(201,125,71)"/>
		<stop class="stop1" offset="1" stop-opacity="1" stop-color="rgb(211,150,86)"/>
	</linearGradient>
	<linearGradient id="Gradient5" gradientUnits="userSpaceOnUse" x1="886.587" y1="1213.41" x2="861.706" y2="1132.83">
		<stop class="stop0" offset="0" stop-opacity="1" stop-color="rgb(208,25,34)"/>
		<stop class="stop1" offset="1" stop-opacity="1" stop-color="rgb(253,59,72)"/>
	</linearGradient>
	<linearGradient id="Gradient6" gradientUnits="userSpaceOnUse" x1="1076.48" y1="1037.73" x2="1049.4" y2="974.281">
		<stop class="stop0" offset="0" stop-opacity="1" stop-color="rgb(231,27,36)"/>
		<stop class="stop1" offset="1" stop-opacity="1" stop-color="rgb(250,67,80)"/>
	</linearGradient>
	<linearGradient id="Gradient7" gradientUnits="userSpaceOnUse" x1="949.775" y1="1092.75" x2="928.985" y2="980.324">
		<stop class="stop0" offset="0" stop-opacity="1" stop-color="rgb(192,22,33)"/>
		<stop class="stop1" offset="1" stop-opacity="1" stop-color="rgb(231,37,46)"/>
	</linearGradient>
	<linearGradient id="Gradient8" gradientUnits="userSpaceOnUse" x1="1159.19" y1="1081.5" x2="1138.98" y2="1019.49">
		<stop class="stop0" offset="0" stop-opacity="1" stop-color="rgb(217,27,41)"/>
		<stop class="stop1" offset="1" stop-opacity="1" stop-color="rgb(253,54,66)"/>
	</linearGradient>
	<linearGradient id="Gradient9" gradientUnits="userSpaceOnUse" x1="1024.92" y1="1205.76" x2="1006.41" y2="1142.22">
		<stop class="stop0" offset="0" stop-opacity="1" stop-color="rgb(229,23,36)"/>
		<stop class="stop1" offset="1" stop-opacity="1" stop-color="rgb(243,88,96)"/>
	</linearGradient>
	<linearGradient id="Gradient10" gradientUnits="userSpaceOnUse" x1="872.628" y1="1184.51" x2="854.244" y2="1061.97">
		<stop class="stop0" offset="0" stop-opacity="1" stop-color="rgb(179,19,28)"/>
		<stop class="stop1" offset="1" stop-opacity="1" stop-color="rgb(228,36,49)"/>
	</linearGradient>
</defs>
<path transform="translate(0,0)" fill="rgb(166,176,178)" d="M 677.008 387.835 C 691.517 390.057 738.072 394.579 748.742 398.385 C 760.056 400.519 791.645 402.962 799.065 405.953 L 799.065 437.269 L 799.065 619.167 L 799.065 619.167 C 781.829 620.324 761.357 633.726 748.742 644.994 C 718.87 662.661 717.749 702.523 746.633 688.43 C 761.237 674.014 778.5 655.514 799.065 650.051 L 799.065 792.767 C 799.312 806.333 799.145 819.905 799.065 833.472 C 818.599 829.634 838.124 825.905 857.753 822.572 L 863.96 822.572 C 892.324 816.764 926.649 812.736 955.631 813.205 C 988.772 808.233 1027.72 811.042 1061.26 813.205 L 1073.68 813.205 L 1074.58 813.361 C 1130.4 822.635 1185.34 819.773 1240.07 844.334 L 1245.21 844.334 L 1252.6 844.334 C 1252.29 863.472 1252.21 882.713 1252.6 901.85 C 1252.72 912.935 1252.71 924.008 1252.6 935.092 C 1253.93 954.87 1255.3 1023.3 1252.6 1042.14 C 1252.69 1052.47 1254.65 1068.52 1252.6 1078.18 L 1252.6 1096.99 C 1252.86 1108.46 1252.95 1119.85 1252.6 1131.33 L 1252.6 1136.31 C 1255.53 1144.42 1257.89 1151.97 1259.08 1160.56 C 1268.54 1157.3 1277.91 1154.27 1287.63 1151.8 L 1298.32 1144.79 C 1308.84 1139.75 1318.43 1133.18 1328.05 1126.66 C 1340.48 1117.54 1351.74 1107.92 1362.6 1096.99 C 1365.91 1093.26 1369.13 1089.57 1372.94 1086.33 L 1372.94 1084.37 C 1379.81 1076.57 1383.53 1065.81 1386.97 1056.18 C 1391.78 1042.97 1392.86 1028.93 1393.05 1014.98 L 1470.36 1014.98 C 1471.67 1019.87 1472.85 1024.84 1474.45 1029.65 C 1480.34 1064.53 1469.22 1103.08 1463.27 1137.26 C 1459.99 1156.12 1432.04 1298.81 1435 1309.49 C 1439.47 1372.98 1428.51 1369.09 1407.31 1415.79 C 1402.33 1466.77 1389.81 1523.98 1382.09 1576.13 C 1374.19 1629.54 1369.41 1650.64 1325.69 1686.82 C 1271.52 1731.65 1211.7 1749.5 1145.54 1768.02 C 1109.19 1774.7 1073.68 1779.34 1036.79 1781.82 C 997.242 1786.16 911.064 1778.52 876.12 1768.02 C 873.721 1767.72 871.614 1767.85 869.215 1768.02 C 832.353 1760.63 767.482 1742.45 736.57 1721.04 C 706.21 1706.2 673.082 1682.4 656.956 1652.18 C 647.648 1634.74 609.961 1452.91 605.619 1421.64 C 583.388 1376.59 560.656 1363.77 579.126 1302.46 C 581.059 1280.46 561.149 1213.55 555.515 1187.69 L 532.667 1078.18 C 526.883 1063.06 524.885 1025.06 525.224 1008.34 C 525.4 1006.18 525.263 1003.98 525.224 1001.81 C 536.633 991.68 545.225 978.604 555.877 967.661 C 590.438 932.155 633.407 899.169 679.682 880.794 C 680.634 865.828 679.777 850.268 679.74 835.262 L 679.671 476.945 C 679.668 457.62 676.448 432.869 677.008 416.409 L 677.008 387.835 z"/>
<path transform="translate(0,0)" fill="url(#Gradient10)" d="M 677.008 387.835 C 691.517 390.057 738.072 394.579 748.742 398.385 C 760.056 400.519 791.645 402.962 799.065 405.953 L 799.065 437.269 L 799.065 619.167 L 799.065 619.167 C 781.829 620.324 761.357 633.726 748.742 644.994 C 718.87 662.661 717.749 702.523 746.633 688.43 C 761.237 674.014 778.5 655.514 799.065 650.051 L 799.065 792.767 C 799.312 806.333 799.145 819.905 799.065 833.472 C 818.599 829.634 838.124 825.905 857.753 822.572 L 863.96 822.572 C 892.324 816.764 926.649 812.736 955.631 813.205 C 988.772 808.233 1027.72 811.042 1061.26 813.205 L 1073.68 813.205 L 1074.58 813.361 C 1130.4 822.635 1185.34 819.773 1240.07 844.334 L 1245.21 844.334 L 1252.6 844.334 C 1252.29 863.472 1252.21 882.713 1252.6 901.85 C 1252.72 912.935 1252.71 924.008 1252.6 935.092 C 1253.93 954.87 1255.3 1023.3 1252.6 1042.14 C 1252.69 1052.47 1254.65 1068.52 1252.6 1078.18 L 1252.6 1096.99 C 1252.86 1108.46 1252.95 1119.85 1252.6 1131.33 L 1252.6 1136.31 C 1255.53 1144.42 1257.89 1151.97 1259.08 1160.56 C 1226.04 1174.26 1193.63 1177.5 1163.23 1188.96 L 1157.66 1188.96 L 1154.8 1188.96 C 1130.81 1195.69 1106.95 1199.38 1082.25 1202.46 C 1060.14 1203.51 1038.04 1205.7 1015.92 1206.04 L 1004.7 1206.04 C 986.168 1207.09 966.032 1206.06 947.817 1202.46 L 932.7 1202.46 C 911.259 1200.84 889.944 1198.83 869.215 1192.85 L 857.753 1192.85 L 823.314 1185.96 L 817.31 1185.96 C 796.72 1177.46 758.178 1165.43 736.57 1160.56 C 731.534 1158.27 727.261 1155.04 722.818 1151.8 C 712.17 1148.95 704.227 1145.75 694.916 1139.82 C 689.628 1137.35 684.686 1134.32 679.682 1131.33 C 660.812 1119.36 642.443 1106.9 628.326 1089.35 L 624.1 1084.37 L 624.1 1084.37 C 602.763 1089.41 565.593 1089.45 548.108 1101.73 L 533.588 1077.71 L 532.667 1078.18 C 526.883 1063.06 524.885 1025.06 525.224 1008.34 C 525.4 1006.18 525.263 1003.98 525.224 1001.81 C 536.633 991.68 545.225 978.604 555.877 967.661 C 590.438 932.155 633.407 899.169 679.682 880.794 C 680.634 865.828 679.777 850.268 679.74 835.262 L 679.671 476.945 C 679.668 457.62 676.448 432.869 677.008 416.409 L 677.008 387.835 z"/>
<path transform="translate(0,0)" fill="rgb(183,133,107)" d="M 677.008 387.835 C 691.517 390.057 738.072 394.579 748.742 398.385 C 760.056 400.519 791.645 402.962 799.065 405.953 L 799.065 437.269 L 799.065 619.167 L 799.065 619.167 C 781.829 620.324 761.357 633.726 748.742 644.994 C 718.87 662.661 717.749 702.523 746.633 688.43 C 761.237 674.014 778.5 655.514 799.065 650.051 L 799.065 792.767 C 799.312 806.333 799.145 819.905 799.065 833.472 C 818.599 829.634 838.124 825.905 857.753 822.572 L 863.96 822.572 C 892.324 816.764 926.649 812.736 955.631 813.205 C 988.772 808.233 1027.72 811.042 1061.26 813.205 L 1060.79 813.944 C 1052.6 826.63 1041.82 835.051 1040.28 851.131 L 1036.79 851.131 C 1035.75 860.137 1039.05 877.248 1036.79 884.037 C 1017.1 884.976 997.134 884.072 977.414 884.037 L 971.052 884.037 C 972.085 895.599 971.441 907.225 971.291 918.814 L 971.052 970.27 C 957.855 967.509 945.249 967.133 932.7 973.105 C 925.766 975.325 919.848 978.195 913.803 982.295 C 907.246 987.869 898.025 995.652 894.07 1003.33 L 892.002 1006.21 C 888.514 1013.71 887.672 1022.57 883.941 1029.65 C 878.03 1023.27 867.634 1020.28 859.664 1017.25 C 857.885 1019.32 856.07 1021.26 854.797 1023.69 L 848.132 1023.69 C 833.56 1021.27 815.702 1023.49 802.207 1029.65 L 799.065 1029.65 C 789.594 1035.8 781.069 1042.93 775.26 1052.76 C 770.625 1059.47 769.157 1067.69 764.744 1074.31 C 758.72 1073.58 752.68 1074.05 746.633 1074.31 C 722.492 1079.68 701.557 1088.54 694.916 1113.91 C 692.635 1123.05 697.54 1132.67 694.916 1139.82 C 689.628 1137.35 684.686 1134.32 679.682 1131.33 C 660.812 1119.36 642.443 1106.9 628.326 1089.35 L 624.1 1084.37 L 624.1 1084.37 C 602.763 1089.41 565.593 1089.45 548.108 1101.73 L 533.588 1077.71 L 532.667 1078.18 C 526.883 1063.06 524.885 1025.06 525.224 1008.34 C 525.4 1006.18 525.263 1003.98 525.224 1001.81 C 536.633 991.68 545.225 978.604 555.877 967.661 C 590.438 932.155 633.407 899.169 679.682 880.794 C 680.634 865.828 679.777 850.268 679.74 835.262 L 679.671 476.945 C 679.668 457.62 676.448 432.869 677.008 416.409 L 677.008 387.835 z"/>
<path transform="translate(0,0)" fill="rgb(102,105,106)" d="M 955.631 813.205 C 988.772 808.233 1027.72 811.042 1061.26 813.205 L 1060.79 813.944 C 1052.6 826.63 1041.82 835.051 1040.28 851.131 L 1036.79 851.131 C 1035.75 860.137 1039.05 877.248 1036.79 884.037 C 1017.1 884.976 997.134 884.072 977.414 884.037 L 971.052 884.037 C 972.085 895.599 971.441 907.225 971.291 918.814 L 971.052 970.27 C 957.855 967.509 945.249 967.133 932.7 973.105 C 925.766 975.325 919.848 978.195 913.803 982.295 C 907.246 987.869 898.025 995.652 894.07 1003.33 L 892.002 1006.21 C 888.514 1013.71 887.672 1022.57 883.941 1029.65 C 878.03 1023.27 867.634 1020.28 859.664 1017.25 C 857.885 1019.32 856.07 1021.26 854.797 1023.69 L 848.132 1023.69 C 833.56 1021.27 815.702 1023.49 802.207 1029.65 C 796.804 1019.67 796.753 927.261 799.065 911.879 L 799.065 874.911 C 817.289 869.038 836.185 864.993 854.797 860.528 C 859.553 859.095 864.344 858.193 869.215 857.26 C 867.875 847.192 870.096 830.666 863.96 822.572 C 892.324 816.764 926.649 812.736 955.631 813.205 z"/>
<path transform="translate(0,0)" fill="rgb(166,176,178)" d="M 955.631 813.205 C 988.772 808.233 1027.72 811.042 1061.26 813.205 L 1060.79 813.944 C 1052.6 826.63 1041.82 835.051 1040.28 851.131 L 1036.79 851.131 C 1035.75 860.137 1039.05 877.248 1036.79 884.037 C 1017.1 884.976 997.134 884.072 977.414 884.037 C 977.278 872.427 977.343 860.822 977.414 849.212 C 941.699 849.025 904.438 851.083 869.215 857.26 C 867.875 847.192 870.096 830.666 863.96 822.572 C 892.324 816.764 926.649 812.736 955.631 813.205 z"/>
<path transform="translate(0,0)" fill="rgb(188,200,203)" d="M 955.631 813.205 C 988.772 808.233 1027.72 811.042 1061.26 813.205 L 1060.79 813.944 C 1052.6 826.63 1041.82 835.051 1040.28 851.131 L 1036.79 851.131 C 1016.99 850.865 997.261 849.312 977.414 849.212 C 976.184 835.197 971.794 813.643 955.631 813.205 z"/>
<path transform="translate(0,0)" fill="rgb(133,137,138)" d="M 869.215 857.26 C 904.438 851.083 941.699 849.025 977.414 849.212 C 977.343 860.822 977.278 872.427 977.414 884.037 L 971.052 884.037 C 923.61 887.18 843.825 893.486 799.065 911.879 L 799.065 874.911 C 817.289 869.038 836.185 864.993 854.797 860.528 C 859.553 859.095 864.344 858.193 869.215 857.26 z"/>
<path transform="translate(0,0)" fill="rgb(243,62,74)" d="M 859.664 1017.25 C 869.73 1009.05 879.219 1006.52 892.002 1006.21 C 888.514 1013.71 887.672 1022.57 883.941 1029.65 C 878.03 1023.27 867.634 1020.28 859.664 1017.25 z"/>
<path transform="translate(0,0)" fill="rgb(154,100,76)" d="M 746.633 688.43 C 761.237 674.014 778.5 655.514 799.065 650.051 L 799.065 792.767 C 799.312 806.333 799.145 819.905 799.065 833.472 C 818.599 829.634 838.124 825.905 857.753 822.572 L 863.96 822.572 C 870.096 830.666 867.875 847.192 869.215 857.26 C 864.344 858.193 859.553 859.095 854.797 860.528 C 836.185 864.993 817.289 869.038 799.065 874.911 L 799.065 911.879 C 796.753 927.261 796.804 1019.67 802.207 1029.65 L 799.065 1029.65 C 789.594 1035.8 781.069 1042.93 775.26 1052.76 C 770.625 1059.47 769.157 1067.69 764.744 1074.31 C 758.72 1073.58 752.68 1074.05 746.633 1074.31 C 744.517 1064.5 746.659 1012.93 746.664 998.412 L 746.783 718.974 C 746.862 708.968 747.765 698.345 746.633 688.43 z"/>
<path transform="translate(0,0)" fill="rgb(166,176,178)" d="M 799.065 792.767 C 799.312 806.333 799.145 819.905 799.065 833.472 C 818.599 829.634 838.124 825.905 857.753 822.572 L 863.96 822.572 C 870.096 830.666 867.875 847.192 869.215 857.26 C 864.344 858.193 859.553 859.095 854.797 860.528 C 836.185 864.993 817.289 869.038 799.065 874.911 C 799.096 851.635 796.367 814.495 799.065 792.767 z"/>
<path transform="translate(0,0)" fill="rgb(151,161,162)" d="M 857.753 822.572 L 863.96 822.572 C 870.096 830.666 867.875 847.192 869.215 857.26 C 864.344 858.193 859.553 859.095 854.797 860.528 C 857.696 848.097 857.602 835.269 857.753 822.572 z"/>
<path transform="translate(0,0)" fill="rgb(188,200,203)" d="M 679.682 880.794 C 679.891 896.504 679.745 912.22 679.682 927.931 L 679.682 965.301 C 634.255 1001.69 609.673 1026.64 624.1 1084.37 L 624.1 1084.37 C 602.763 1089.41 565.593 1089.45 548.108 1101.73 L 533.588 1077.71 L 532.667 1078.18 C 526.883 1063.06 524.885 1025.06 525.224 1008.34 C 525.4 1006.18 525.263 1003.98 525.224 1001.81 C 536.633 991.68 545.225 978.604 555.877 967.661 C 590.438 932.155 633.407 899.169 679.682 880.794 z"/>
<path transform="translate(0,0)" fill="rgb(188,200,203)" d="M 532.667 1078.18 C 526.883 1063.06 524.885 1025.06 525.224 1008.34 C 548.969 1003.58 576.823 1009.56 601.764 1008.34 C 595.523 1036.27 598.672 1067.56 624.1 1084.37 C 602.763 1089.41 565.593 1089.45 548.108 1101.73 L 533.588 1077.71 L 532.667 1078.18 z"/>
<path transform="translate(0,0)" fill="rgb(133,137,138)" d="M 679.682 927.931 L 679.682 965.301 C 634.255 1001.69 609.673 1026.64 624.1 1084.37 L 624.1 1084.37 C 598.672 1067.56 595.523 1036.27 601.764 1008.34 C 576.823 1009.56 548.969 1003.58 525.224 1008.34 C 525.4 1006.18 525.263 1003.98 525.224 1001.81 C 548.617 1002.69 579.509 1004.26 601.764 1003.33 C 626.557 965.753 642.034 951.866 679.682 927.931 z"/>
<path transform="translate(0,0)" fill="rgb(154,100,76)" d="M 677.008 387.835 C 691.517 390.057 738.072 394.579 748.742 398.385 C 760.056 400.519 791.645 402.962 799.065 405.953 L 799.065 437.269 L 799.065 619.167 L 799.065 619.167 C 781.829 620.324 761.357 633.726 748.742 644.994 C 744.825 617.147 746.467 587.514 746.544 559.399 L 746.633 435.667 C 727.991 431.499 680.079 430.992 677.008 416.409 L 677.008 387.835 z"/>
<path transform="translate(0,0)" fill="rgb(140,84,71)" d="M 748.742 398.385 C 760.056 400.519 791.645 402.962 799.065 405.953 L 799.065 437.269 C 782.688 439.648 763.145 436.633 746.633 435.667 C 746.561 428.605 743.5 403.47 748.742 398.385 z"/>
<path transform="translate(0,0)" fill="rgb(102,105,106)" d="M 624.1 1084.37 C 609.673 1026.64 634.255 1001.69 679.682 965.301 L 679.682 1131.33 C 660.812 1119.36 642.443 1106.9 628.326 1089.35 L 624.1 1084.37 z"/>
<path transform="translate(0,0)" fill="rgb(133,137,138)" d="M 1073.68 813.205 L 1074.58 813.361 C 1130.4 822.635 1185.34 819.773 1240.07 844.334 L 1245.21 844.334 L 1252.6 844.334 C 1252.29 863.472 1252.21 882.713 1252.6 901.85 C 1252.72 912.935 1252.71 924.008 1252.6 935.092 C 1253.93 954.87 1255.3 1023.3 1252.6 1042.14 C 1252.69 1052.47 1254.65 1068.52 1252.6 1078.18 L 1252.6 1096.99 C 1246.79 1097.41 1240.99 1097.15 1235.18 1096.99 C 1229.98 1093.78 1225.22 1090.06 1220.38 1086.33 C 1220.37 1084.82 1218.62 1082.88 1217.77 1081.57 C 1217.29 1075.73 1215.86 1070.04 1214.6 1064.31 C 1212.82 1061.71 1211.37 1058.96 1209.87 1056.18 L 1210.62 1055.65 L 1213.94 1058.95 C 1217.6 1055.41 1204.74 1046.71 1204.95 1042.14 C 1198.6 1025.89 1170.37 1014.8 1154.8 1014.98 C 1141.64 1015.52 1132.9 1017.09 1121.33 1023.69 L 1121.33 1023.69 L 1120.27 1020.01 C 1106.96 972.963 1035.53 954.505 1012.05 1001.81 C 1000.75 986.502 992.508 977.552 974.547 970.27 L 971.052 970.27 L 971.291 918.814 C 971.441 907.225 972.085 895.599 971.052 884.037 L 977.414 884.037 C 997.134 884.072 1017.1 884.976 1036.79 884.037 C 1039.05 877.248 1035.75 860.137 1036.79 851.131 L 1040.28 851.131 C 1041.82 835.051 1052.6 826.63 1060.79 813.944 L 1061.26 813.205 L 1073.68 813.205 z"/>
<path transform="translate(0,0)" fill="rgb(166,176,178)" d="M 1073.68 813.205 L 1074.58 813.361 C 1130.4 822.635 1185.34 819.773 1240.07 844.334 L 1245.21 844.334 L 1252.6 844.334 C 1252.29 863.472 1252.21 882.713 1252.6 901.85 C 1252.72 912.935 1252.71 924.008 1252.6 935.092 C 1237.45 927.17 1221 921.142 1204.95 915.301 L 1195.11 911.879 C 1142.61 895.805 1093.11 896.815 1046.03 884.037 L 1036.79 884.037 C 1039.05 877.248 1035.75 860.137 1036.79 851.131 L 1040.28 851.131 C 1041.82 835.051 1052.6 826.63 1060.79 813.944 L 1061.26 813.205 L 1073.68 813.205 z"/>
<path transform="translate(0,0)" fill="rgb(188,200,203)" d="M 1073.68 813.205 L 1074.58 813.361 C 1130.4 822.635 1185.34 819.773 1240.07 844.334 L 1238.32 844.9 C 1222.12 850.017 1198.86 857.617 1195.11 877.755 C 1141.36 864.031 1101.24 858.236 1046.03 851.131 C 1055.94 838.881 1065.36 826.627 1073.68 813.205 z"/>
<path transform="translate(0,0)" fill="rgb(166,176,178)" d="M 1204.95 880.794 C 1221.47 886.358 1236.55 896.704 1252.6 901.85 C 1252.72 912.935 1252.71 924.008 1252.6 935.092 C 1237.45 927.17 1221 921.142 1204.95 915.301 C 1205.14 903.789 1204.24 892.309 1204.95 880.794 z"/>
<path transform="translate(0,0)" fill="rgb(188,200,203)" d="M 1245.21 844.334 L 1252.6 844.334 C 1252.29 863.472 1252.21 882.713 1252.6 901.85 C 1236.55 896.704 1221.47 886.358 1204.95 880.794 L 1201.28 877.755 C 1209.81 870.147 1236.16 849.187 1245.21 844.334 z"/>
<path transform="translate(0,0)" fill="rgb(151,161,162)" d="M 1195.11 877.755 L 1201.28 877.755 L 1204.95 880.794 C 1204.24 892.309 1205.14 903.789 1204.95 915.301 L 1195.11 911.879 C 1197.18 906.868 1195.11 884.469 1195.11 877.755 z"/>
<path transform="translate(0,0)" fill="rgb(151,161,162)" d="M 1040.28 851.131 C 1052.6 853.548 1047.31 869.872 1046.03 884.037 L 1036.79 884.037 C 1039.05 877.248 1035.75 860.137 1036.79 851.131 L 1040.28 851.131 z"/>
<path transform="translate(0,0)" fill="rgb(239,48,59)" d="M 1252.6 1042.14 C 1252.69 1052.47 1254.65 1068.52 1252.6 1078.18 L 1252.6 1096.99 C 1246.79 1097.41 1240.99 1097.15 1235.18 1096.99 C 1229.98 1093.78 1225.22 1090.06 1220.38 1086.33 C 1220.37 1084.82 1218.62 1082.88 1217.77 1081.57 C 1217.29 1075.73 1215.86 1070.04 1214.6 1064.31 C 1212.82 1061.71 1211.37 1058.96 1209.87 1056.18 L 1210.62 1055.65 L 1213.94 1058.95 C 1217.6 1055.41 1204.74 1046.71 1204.95 1042.14 C 1210.8 1047.51 1213.14 1052.99 1217.77 1059.12 C 1229.09 1051.37 1239.8 1046.74 1252.6 1042.14 z"/>
<path transform="translate(0,0)" fill="rgb(243,62,74)" d="M 1252.6 1042.14 C 1252.69 1052.47 1254.65 1068.52 1252.6 1078.18 C 1231.14 1077.63 1233.3 1068.1 1217.77 1059.12 C 1229.09 1051.37 1239.8 1046.74 1252.6 1042.14 z"/>
<path transform="translate(0,0)" fill="rgb(230,35,48)" d="M 1121.33 1023.69 C 1132.9 1017.09 1141.64 1015.52 1154.8 1014.98 C 1170.37 1014.8 1198.6 1025.89 1204.95 1042.14 C 1204.74 1046.71 1217.6 1055.41 1213.94 1058.95 L 1210.62 1055.65 L 1209.87 1056.18 C 1211.37 1058.96 1212.82 1061.71 1214.6 1064.31 C 1215.86 1070.04 1217.29 1075.73 1217.77 1081.57 C 1218.62 1082.88 1220.37 1084.82 1220.38 1086.33 C 1225.22 1090.06 1229.98 1093.78 1235.18 1096.99 C 1240.99 1097.15 1246.79 1097.41 1252.6 1096.99 C 1252.86 1108.46 1252.95 1119.85 1252.6 1131.33 L 1252.6 1136.31 C 1255.53 1144.42 1257.89 1151.97 1259.08 1160.56 C 1226.04 1174.26 1193.63 1177.5 1163.23 1188.96 L 1157.66 1188.96 L 1154.8 1188.96 C 1130.81 1195.69 1106.95 1199.38 1082.25 1202.46 C 1060.14 1203.51 1038.04 1205.7 1015.92 1206.04 L 1004.7 1206.04 C 986.168 1207.09 966.032 1206.06 947.817 1202.46 L 932.7 1202.46 C 930.992 1194.63 931.825 1185.84 935.418 1178.72 C 940.732 1174.09 946.441 1170.72 952.589 1167.34 C 956.536 1164.28 962.487 1162.46 967.113 1160.56 C 976.704 1149.97 993.236 1143.48 1007.15 1141.85 C 1012.29 1139.61 1019.84 1140.64 1025.46 1140.23 C 1025.59 1133.02 1013.03 1125.33 1015.17 1110.75 C 1016.35 1102.67 1034.65 1088.48 1020.86 1086.33 C 1028.92 1082.68 1034.1 1077.88 1040.28 1071.72 L 1042.79 1052.76 C 1053.51 1056.61 1063.04 1066.67 1073.68 1068.64 C 1079.16 1069.3 1084.53 1069.74 1089.73 1071.72 C 1100.31 1054.31 1106.09 1037.94 1121.33 1023.69 L 1121.33 1023.69 L 1121.33 1023.69 z"/>
<path transform="translate(0,0)" fill="rgb(201,28,39)" d="M 1125.85 1113.91 C 1131.44 1116.61 1136.46 1118.91 1140.3 1123.93 C 1137.16 1130.71 1135.03 1137.18 1135.24 1144.79 C 1138.49 1157.1 1150.81 1165.19 1162.59 1168.06 C 1208.34 1179.22 1217.77 1143.04 1243.83 1127.47 L 1245.21 1126.66 C 1247.51 1130.09 1249.77 1133.28 1252.6 1136.31 C 1255.53 1144.42 1257.89 1151.97 1259.08 1160.56 C 1226.04 1174.26 1193.63 1177.5 1163.23 1188.96 L 1157.66 1188.96 L 1154.8 1188.96 C 1130.81 1195.69 1106.95 1199.38 1082.25 1202.46 C 1060.14 1203.51 1038.04 1205.7 1015.92 1206.04 L 1004.7 1206.04 C 986.168 1207.09 966.032 1206.06 947.817 1202.46 L 932.7 1202.46 C 930.992 1194.63 931.825 1185.84 935.418 1178.72 C 940.732 1174.09 946.441 1170.72 952.589 1167.34 C 956.536 1164.28 962.487 1162.46 967.113 1160.56 C 976.704 1149.97 993.236 1143.48 1007.15 1141.85 L 1009.55 1141.85 C 1019.97 1140.64 1030.09 1142.88 1040.28 1144.79 C 1040.27 1149.99 1039.97 1155.39 1040.28 1160.56 C 1041.02 1155.54 1040.39 1149.89 1040.28 1144.79 C 1049 1149.95 1056.57 1156.95 1066.15 1160.56 C 1059.66 1154.18 1050.54 1149.54 1042.79 1144.79 C 1083 1143.35 1092.82 1135.5 1125.85 1113.91 z"/>
<path transform="translate(0,0)" fill="url(#Gradient9)" d="M 1009.55 1141.85 C 1019.97 1140.64 1030.09 1142.88 1040.28 1144.79 C 1040.27 1149.99 1039.97 1155.39 1040.28 1160.56 C 1041.02 1155.54 1040.39 1149.89 1040.28 1144.79 C 1049 1149.95 1056.57 1156.95 1066.15 1160.56 C 1075.48 1170.11 1082.22 1178.8 1082.25 1192.85 C 1064.14 1190.11 1079.57 1176.99 1041.74 1190.02 C 1014.71 1199.33 973.325 1214.74 955.631 1182.25 C 958.333 1174.48 961.745 1166.89 967.113 1160.56 C 976.704 1149.97 993.236 1143.48 1007.15 1141.85 L 1009.55 1141.85 z"/>
<path transform="translate(0,0)" fill="rgb(243,62,74)" d="M 1009.55 1141.85 C 1019.97 1140.64 1030.09 1142.88 1040.28 1144.79 C 1040.27 1149.99 1039.97 1155.39 1040.28 1160.56 C 1027.17 1185.02 991.572 1200.88 975.162 1177.44 C 992.958 1176.95 1009.63 1168.92 1015.92 1151.8 L 1009.55 1141.85 z"/>
<path transform="translate(0,0)" fill="rgb(239,48,59)" d="M 1135.24 1178.72 C 1143.51 1180.34 1152.16 1181.93 1157.66 1188.96 L 1154.8 1188.96 C 1130.81 1195.69 1106.95 1199.38 1082.25 1202.46 L 1082.25 1200.66 C 1094.62 1184.48 1115.32 1178.01 1135.24 1178.72 z"/>
<path transform="translate(0,0)" fill="rgb(239,48,59)" d="M 952.589 1167.34 L 952.29 1168.75 C 949.231 1182.49 945.521 1187.2 947.817 1202.46 L 932.7 1202.46 C 930.992 1194.63 931.825 1185.84 935.418 1178.72 C 940.732 1174.09 946.441 1170.72 952.589 1167.34 z"/>
<path transform="translate(0,0)" fill="url(#Gradient8)" d="M 1121.33 1023.69 C 1132.9 1017.09 1141.64 1015.52 1154.8 1014.98 C 1170.37 1014.8 1198.6 1025.89 1204.95 1042.14 C 1204.74 1046.71 1217.6 1055.41 1213.94 1058.95 L 1210.62 1055.65 L 1209.87 1056.18 C 1211.37 1058.96 1212.82 1061.71 1214.6 1064.31 C 1215.86 1070.04 1217.29 1075.73 1217.77 1081.57 C 1215.75 1088.14 1214.41 1094.83 1214.6 1101.73 L 1209.87 1101.73 C 1199.33 1097.2 1186.18 1096.35 1175.76 1101.73 C 1166.49 1104.67 1158.39 1108.86 1150.1 1113.91 C 1148.37 1116.2 1146.75 1118.32 1145.54 1120.94 L 1143.75 1120.94 C 1136.21 1114.32 1140.73 1095.09 1116.93 1084.37 C 1112.8 1084.42 1109.28 1082.39 1105.27 1081.57 C 1102.49 1075.13 1095.74 1073.83 1089.73 1071.72 C 1100.31 1054.31 1106.09 1037.94 1121.33 1023.69 L 1121.33 1023.69 L 1121.33 1023.69 z"/>
<path transform="translate(0,0)" fill="rgb(201,28,39)" d="M 1201.28 1048.43 C 1204.1 1051.06 1206.99 1053.61 1209.87 1056.18 C 1211.37 1058.96 1212.82 1061.71 1214.6 1064.31 C 1215.86 1070.04 1217.29 1075.73 1217.77 1081.57 C 1215.75 1088.14 1214.41 1094.83 1214.6 1101.73 L 1209.87 1101.73 C 1199.33 1097.2 1186.18 1096.35 1175.76 1101.73 C 1166.49 1104.67 1158.39 1108.86 1150.1 1113.91 C 1148.37 1116.2 1146.75 1118.32 1145.54 1120.94 L 1143.75 1120.94 C 1136.21 1114.32 1140.73 1095.09 1116.93 1084.37 C 1146.28 1081.43 1159.5 1087.01 1191.95 1071.72 C 1194.68 1063.71 1197.43 1055.99 1201.28 1048.43 z"/>
<path transform="translate(0,0)" fill="rgb(243,62,74)" d="M 1121.33 1023.69 C 1132.9 1017.09 1141.64 1015.52 1154.8 1014.98 C 1152.09 1039.02 1125.03 1052.16 1121.33 1023.69 z"/>
<path transform="translate(0,0)" fill="rgb(243,62,74)" d="M 1073.68 1068.64 C 1079.16 1069.3 1084.53 1069.74 1089.73 1071.72 C 1095.74 1073.83 1102.49 1075.13 1105.27 1081.57 C 1100.09 1110.38 1074.57 1138.39 1042.81 1131.5 C 1024.32 1127.49 1007.29 1100.3 1036.79 1089.35 C 1046.01 1078.86 1056.02 1073.73 1069.77 1071.72 L 1073.68 1068.64 z"/>
<path transform="translate(0,0)" fill="rgb(241,81,93)" d="M 1069.77 1071.72 C 1124.11 1089.22 1015.57 1129.64 1036.79 1089.35 C 1046.01 1078.86 1056.02 1073.73 1069.77 1071.72 z"/>
<path transform="translate(0,0)" fill="rgb(243,62,74)" d="M 1175.76 1101.73 C 1186.18 1096.35 1199.33 1097.2 1209.87 1101.73 C 1212.6 1106.81 1215.57 1111.85 1217.77 1117.18 C 1211.24 1153.81 1168.65 1176.18 1149.45 1146.7 C 1143.05 1136.88 1146.14 1131.06 1145.54 1120.94 C 1146.75 1118.32 1148.37 1116.2 1150.1 1113.91 C 1158.39 1108.86 1166.49 1104.67 1175.76 1101.73 z"/>
<path transform="translate(0,0)" fill="rgb(241,81,93)" d="M 1175.76 1101.73 C 1232.52 1116.72 1146.27 1153.91 1150.1 1113.91 C 1158.39 1108.86 1166.49 1104.67 1175.76 1101.73 z"/>
<path transform="translate(0,0)" fill="rgb(201,28,39)" d="M 1220.38 1086.33 C 1225.22 1090.06 1229.98 1093.78 1235.18 1096.99 C 1240.99 1097.15 1246.79 1097.41 1252.6 1096.99 C 1252.86 1108.46 1252.95 1119.85 1252.6 1131.33 C 1242.46 1118.03 1234.79 1107.6 1217.77 1101.73 C 1221.5 1097.58 1220.45 1091.57 1220.38 1086.33 z"/>
<path transform="translate(0,0)" fill="url(#Gradient7)" d="M 932.7 973.105 C 945.249 967.133 957.855 967.509 971.052 970.27 L 974.547 970.27 C 992.508 977.552 1000.75 986.502 1012.05 1001.81 C 1035.53 954.505 1106.96 972.963 1120.27 1020.01 L 1121.33 1023.69 L 1121.33 1023.69 C 1106.09 1037.94 1100.31 1054.31 1089.73 1071.72 C 1084.53 1069.74 1079.16 1069.3 1073.68 1068.64 C 1063.04 1066.67 1053.51 1056.61 1042.79 1052.76 L 1040.28 1071.72 C 1034.1 1077.88 1028.92 1082.68 1020.86 1086.33 C 991.78 1093.83 1000.66 1074.13 983.516 1064.31 C 974.005 1067.99 950.88 1038.49 923.723 1052.76 L 901.534 1059.12 C 889.693 1065.55 883.666 1074.49 878.123 1086.33 C 868.732 1092.88 871.379 1111.28 877.587 1118.88 L 875.916 1119.1 C 856.996 1092.46 898.148 1094.32 840.981 1099.14 C 794.412 1103.06 834.272 1100.04 830.821 1126.66 C 823.489 1094.8 792.875 1083.3 764.744 1074.31 C 769.157 1067.69 770.625 1059.47 775.26 1052.76 C 781.069 1042.93 789.594 1035.8 799.065 1029.65 L 802.207 1029.65 C 815.702 1023.49 833.56 1021.27 848.132 1023.69 L 854.797 1023.69 C 856.07 1021.26 857.885 1019.32 859.664 1017.25 C 867.634 1020.28 878.03 1023.27 883.941 1029.65 C 887.672 1022.57 888.514 1013.71 892.002 1006.21 L 894.07 1003.33 C 898.025 995.652 907.246 987.869 913.803 982.295 C 919.848 978.195 925.766 975.325 932.7 973.105 z"/>
<path transform="translate(0,0)" fill="rgb(239,48,59)" d="M 932.7 973.105 C 945.249 967.133 957.855 967.509 971.052 970.27 L 974.547 970.27 C 971.303 978.921 972.677 987.462 971.658 996.389 C 967.648 1031.53 897.74 1070.81 894.07 1003.33 C 898.025 995.652 907.246 987.869 913.803 982.295 C 919.848 978.195 925.766 975.325 932.7 973.105 z"/>
<path transform="translate(0,0)" fill="rgb(241,81,93)" d="M 913.803 982.295 C 919.848 978.195 925.766 975.325 932.7 973.105 C 980.14 976.49 936.174 1006.52 916.914 998.769 C 912.558 994.345 913.175 987.987 913.803 982.295 z"/>
<path transform="translate(0,0)" fill="rgb(239,48,59)" d="M 802.207 1029.65 C 815.702 1023.49 833.56 1021.27 848.132 1023.69 L 854.797 1023.69 C 865.499 1030.39 870.685 1035.83 866.07 1048.43 C 855.54 1061.84 843.865 1078.25 825.507 1080.32 C 790.857 1084.23 787.658 1058.2 775.26 1052.76 C 781.069 1042.93 789.594 1035.8 799.065 1029.65 L 802.207 1029.65 z"/>
<path transform="translate(0,0)" fill="rgb(243,62,74)" d="M 802.207 1029.65 C 815.702 1023.49 833.56 1021.27 848.132 1023.69 L 846.83 1023.86 C 846.525 1024.33 846.392 1024.62 845.931 1024.93 L 851.615 1024.91 C 849.69 1028.08 845.836 1027.96 843.144 1030.08 C 854.856 1042.42 815.707 1060.94 801.991 1059.66 C 784.042 1057.99 795.165 1038.76 799.065 1029.65 L 802.207 1029.65 z"/>
<path transform="translate(0,0)" fill="url(#Gradient6)" d="M 1012.05 1001.81 C 1035.53 954.505 1106.96 972.963 1120.27 1020.01 L 1121.33 1023.69 L 1121.33 1023.69 C 1108.51 1014.56 1100.21 999.331 1089.73 987.492 C 1062.05 980.566 1092.74 1022.33 1028.63 1029.65 C 1019.17 1021.74 1014.22 1013.84 1012.05 1001.81 z"/>
<path transform="translate(0,0)" fill="rgb(239,48,59)" d="M 983.516 1064.31 C 995.888 1049.23 1026.11 1044.77 1042.79 1052.76 L 1040.28 1071.72 C 1034.1 1077.88 1028.92 1082.68 1020.86 1086.33 C 991.78 1093.83 1000.66 1074.13 983.516 1064.31 z"/>
<path transform="translate(0,0)" fill="rgb(241,81,93)" d="M 1004.7 1059.12 C 1016.8 1058.51 1025.51 1065.96 1012.05 1074.31 C 998.609 1075.39 986.316 1063.48 1004.7 1059.12 z"/>
<path transform="translate(0,0)" fill="rgb(230,35,48)" d="M 854.797 1023.69 C 856.07 1021.26 857.885 1019.32 859.664 1017.25 C 867.634 1020.28 878.03 1023.27 883.941 1029.65 C 882.484 1036.1 889.65 1049.57 892.002 1056.18 C 882.775 1055.35 872.56 1055.95 866.07 1048.43 C 870.685 1035.83 865.499 1030.39 854.797 1023.69 z"/>
<path transform="translate(0,0)" fill="rgb(239,48,59)" d="M 746.633 1074.31 C 752.68 1074.05 758.72 1073.58 764.744 1074.31 C 792.875 1083.3 823.489 1094.8 830.821 1126.66 C 824.436 1124.51 818.12 1117.22 811.573 1113.91 C 784.202 1115.47 726.732 1169.12 703.416 1120.94 L 702.496 1108.01 L 702.398 1108.34 L 701.084 1105.21 L 701.554 1104.24 C 698.854 1106.44 698.163 1109.58 696.093 1112.36 L 694.916 1113.91 C 701.557 1088.54 722.492 1079.68 746.633 1074.31 z"/>
<path transform="translate(0,0)" fill="rgb(241,81,93)" d="M 754.914 1078.18 C 762.493 1076.52 769.966 1081.86 771.426 1089.5 C 777.852 1123.14 691.683 1122.95 722.818 1089.35 C 732.561 1079.31 742.17 1080.22 754.914 1078.18 z"/>
<path transform="translate(0,0)" fill="rgb(237,134,138)" d="M 722.818 1089.35 C 732.561 1079.31 742.17 1080.22 754.914 1078.18 L 758.664 1079.95 C 760.667 1086.77 751.679 1090.53 746.633 1092.74 C 738.412 1092.17 730.837 1091.26 722.818 1089.35 z"/>
<path transform="translate(0,0)" fill="url(#Gradient5)" d="M 870.93 1136.31 C 897.913 1139.34 923.132 1154.12 935.418 1178.72 C 931.825 1185.84 930.992 1194.63 932.7 1202.46 C 911.259 1200.84 889.944 1198.83 869.215 1192.85 L 857.753 1192.85 L 823.314 1185.96 L 823.379 1182.83 C 808.006 1165.6 830.758 1152.1 835.993 1144.99 L 832.732 1143.6 L 832.556 1142.42 C 837.425 1140.9 846.454 1138.19 837.755 1143.63 L 838.537 1144.79 C 848.41 1139.67 858.234 1138.54 869.215 1139.82 L 870.93 1136.31 z"/>
<path transform="translate(0,0)" fill="rgb(241,81,93)" d="M 838.537 1144.79 C 848.41 1139.67 858.234 1138.54 869.215 1139.82 C 872.572 1143.7 875.379 1147.48 878.123 1151.8 C 872.003 1167.04 837.022 1182.51 832.458 1162.97 C 831.083 1157.08 836.47 1150.09 838.537 1144.79 z"/>
<path transform="translate(0,0)" fill="rgb(239,48,59)" d="M 923.723 1052.76 C 931.072 1053.91 937.499 1055.62 944.162 1059.12 C 993.216 1056.42 946.477 1115.03 907.335 1113.32 C 890.887 1112.61 884.966 1099.12 878.123 1086.33 C 883.666 1074.49 889.693 1065.55 901.534 1059.12 L 923.723 1052.76 z"/>
<path transform="translate(0,0)" fill="rgb(241,81,93)" d="M 923.723 1052.76 C 931.072 1053.91 937.499 1055.62 944.162 1059.12 C 940.751 1080.41 907.113 1103.34 894.07 1078.18 C 896.441 1072.39 900.896 1065.2 901.534 1059.12 L 923.723 1052.76 z"/>
<path transform="translate(0,0)" fill="rgb(243,62,74)" d="M 830.821 1141.85 C 828.749 1125.72 837.035 1123.18 851.241 1120.94 C 857.086 1125.73 860.631 1129.36 863.96 1136.31 C 852.8 1137.39 841.701 1139.08 830.821 1141.85 z"/>
<path transform="translate(0,0)" fill="rgb(230,35,48)" d="M 851.241 1120.94 C 874.466 1116.66 866.233 1125.51 870.93 1136.31 L 869.215 1139.82 C 858.234 1138.54 848.41 1139.67 838.537 1144.79 L 837.755 1143.63 C 846.454 1138.19 837.425 1140.9 832.556 1142.42 L 832.732 1143.6 L 835.993 1144.99 C 830.758 1152.1 808.006 1165.6 823.379 1182.83 L 823.314 1185.96 L 817.31 1185.96 C 812.402 1157.88 830.441 1154.94 830.821 1141.85 C 841.701 1139.08 852.8 1137.39 863.96 1136.31 C 860.631 1129.36 857.086 1125.73 851.241 1120.94 z"/>
<path transform="translate(0,0)" fill="rgb(230,35,48)" d="M 987.025 1086.33 C 999.209 1090.56 998.216 1087.11 1004.7 1101.73 C 1001 1106.05 990.102 1089.01 987.025 1086.33 z"/>
<path transform="translate(0,0)" fill="rgb(151,161,162)" d="M 1082.25 1202.46 C 1106.95 1199.38 1130.81 1195.69 1154.8 1188.96 C 1156.58 1201.88 1163.31 1225.37 1169.06 1236.87 L 1172.07 1241.6 L 1169.06 1241.6 C 1165.02 1283.61 1164.46 1326.5 1162.26 1368.68 L 1158.79 1443.53 C 1158.08 1460.19 1156.87 1477.07 1157.66 1493.73 C 1115.08 1505.09 1056.2 1509.3 1012.05 1509.04 C 956.883 1509.23 902.354 1503.98 848.132 1493.73 C 850.084 1487.06 838.237 1349.93 837.153 1335.01 C 835.381 1310.62 830.533 1264.17 833.918 1241.6 L 833.918 1232.88 C 832.31 1219.79 850.488 1202.83 857.753 1192.85 L 869.215 1192.85 C 889.944 1198.83 911.259 1200.84 932.7 1202.46 L 947.817 1202.46 C 966.032 1206.06 986.168 1207.09 1004.7 1206.04 L 1015.92 1206.04 C 1038.04 1205.7 1060.14 1203.51 1082.25 1202.46 z"/>
<path transform="translate(0,0)" fill="rgb(133,137,138)" d="M 1082.25 1202.46 C 1106.95 1199.38 1130.81 1195.69 1154.8 1188.96 C 1156.58 1201.88 1163.31 1225.37 1169.06 1236.87 L 1172.07 1241.6 L 1169.06 1241.6 C 1165.02 1283.61 1164.46 1326.5 1162.26 1368.68 L 1158.79 1443.53 C 1158.08 1460.19 1156.87 1477.07 1157.66 1493.73 C 1115.08 1505.09 1056.2 1509.3 1012.05 1509.04 C 1014.49 1479.16 1011.68 1448.2 1010.09 1418.3 C 1007.56 1370.57 1003.82 1303.93 1007.15 1256.23 L 1007.15 1254.76 C 1012.83 1255.28 1018.96 1256.21 1024.55 1254.76 C 1019.26 1254.35 1015.81 1255.38 1015.92 1249.09 C 1018.03 1235.7 1016.08 1219.71 1015.92 1206.04 C 1038.04 1205.7 1060.14 1203.51 1082.25 1202.46 z"/>
<path transform="translate(0,0)" fill="rgb(188,200,203)" d="M 1082.25 1202.46 C 1106.95 1199.38 1130.81 1195.69 1154.8 1188.96 C 1156.58 1201.88 1163.31 1225.37 1169.06 1236.87 L 1172.07 1241.6 L 1169.06 1241.6 C 1116.18 1255.67 1072.17 1248.27 1024.55 1254.76 C 1019.26 1254.35 1015.81 1255.38 1015.92 1249.09 C 1018.03 1235.7 1016.08 1219.71 1015.92 1206.04 C 1038.04 1205.7 1060.14 1203.51 1082.25 1202.46 z"/>
<path transform="translate(0,0)" fill="rgb(248,250,250)" d="M 1169.06 1236.87 L 1172.07 1241.6 L 1169.06 1241.6 C 1116.18 1255.67 1072.17 1248.27 1024.55 1254.76 C 1019.26 1254.35 1015.81 1255.38 1015.92 1249.09 C 1067.27 1251.41 1118.39 1244.17 1169.06 1236.87 z"/>
<path transform="translate(0,0)" fill="rgb(188,200,203)" d="M 869.215 1192.85 C 889.944 1198.83 911.259 1200.84 932.7 1202.46 L 947.817 1202.46 C 966.032 1206.06 986.168 1207.09 1004.7 1206.04 L 1015.92 1206.04 C 1016.08 1219.71 1018.03 1235.7 1015.92 1249.09 C 1015.81 1255.38 1019.26 1254.35 1024.55 1254.76 C 1018.96 1256.21 1012.83 1255.28 1007.15 1254.76 L 1007.15 1256.23 L 1004.7 1254.76 C 1006.5 1254.34 1005.57 1254.77 1007.28 1253.1 L 1006.81 1251.21 C 1002.84 1248.31 974.981 1248.99 968.133 1248.68 C 931.424 1247.03 879.935 1242.32 844.966 1232.88 C 853.753 1220.21 861.202 1206.08 869.215 1192.85 z"/>
<path transform="translate(0,0)" fill="rgb(151,161,162)" d="M 1004.7 1206.04 L 1015.92 1206.04 C 1016.08 1219.71 1018.03 1235.7 1015.92 1249.09 C 1015.81 1255.38 1019.26 1254.35 1024.55 1254.76 C 1018.96 1256.21 1012.83 1255.28 1007.15 1254.76 C 1005.99 1238.54 1005.95 1222.27 1004.7 1206.04 z"/>
<path transform="translate(0,0)" fill="rgb(248,250,250)" d="M 844.966 1232.88 C 879.935 1242.32 931.424 1247.03 968.133 1248.68 C 974.981 1248.99 1002.84 1248.31 1006.81 1251.21 L 1007.28 1253.1 C 1005.57 1254.77 1006.5 1254.34 1004.7 1254.76 C 974.931 1254.26 851.624 1250.7 842.862 1241.12 C 842.552 1237.99 843.771 1235.68 844.966 1232.88 z"/>
<path transform="translate(0,0)" fill="rgb(133,137,138)" d="M 1393.05 1014.98 L 1470.36 1014.98 C 1471.67 1019.87 1472.85 1024.84 1474.45 1029.65 C 1480.34 1064.53 1469.22 1103.08 1463.27 1137.26 C 1459.99 1156.12 1432.04 1298.81 1435 1309.49 C 1423.5 1318.75 1421.3 1335.31 1415.25 1348 C 1370.39 1442.09 1255.91 1465.56 1167.27 1493.73 L 1157.66 1493.73 C 1156.87 1477.07 1158.08 1460.19 1158.79 1443.53 L 1162.26 1368.68 C 1164.46 1326.5 1165.02 1283.61 1169.06 1241.6 L 1172.07 1241.6 L 1169.06 1236.87 C 1163.31 1225.37 1156.58 1201.88 1154.8 1188.96 L 1157.66 1188.96 L 1163.23 1188.96 C 1193.63 1177.5 1226.04 1174.26 1259.08 1160.56 C 1268.54 1157.3 1277.91 1154.27 1287.63 1151.8 L 1298.32 1144.79 C 1308.84 1139.75 1318.43 1133.18 1328.05 1126.66 C 1340.48 1117.54 1351.74 1107.92 1362.6 1096.99 C 1365.91 1093.26 1369.13 1089.57 1372.94 1086.33 L 1372.94 1084.37 C 1379.81 1076.57 1383.53 1065.81 1386.97 1056.18 C 1391.78 1042.97 1392.86 1028.93 1393.05 1014.98 z"/>
<path transform="translate(0,0)" fill="rgb(188,200,203)" d="M 1393.05 1014.98 L 1470.36 1014.98 C 1471.67 1019.87 1472.85 1024.84 1474.45 1029.65 L 1474.15 1031.52 C 1472.45 1042.39 1472.46 1053.02 1469.5 1063.75 C 1445.95 1149.33 1311.22 1202.93 1236.17 1226.28 C 1218.81 1231.69 1200.6 1235.26 1183.58 1241.6 L 1177.91 1241.6 C 1175.94 1241.75 1174.03 1241.67 1172.07 1241.6 L 1169.06 1236.87 C 1163.31 1225.37 1156.58 1201.88 1154.8 1188.96 L 1157.66 1188.96 L 1163.23 1188.96 C 1193.63 1177.5 1226.04 1174.26 1259.08 1160.56 C 1268.54 1157.3 1277.91 1154.27 1287.63 1151.8 L 1298.32 1144.79 C 1308.84 1139.75 1318.43 1133.18 1328.05 1126.66 C 1340.48 1117.54 1351.74 1107.92 1362.6 1096.99 C 1365.91 1093.26 1369.13 1089.57 1372.94 1086.33 L 1372.94 1084.37 C 1379.81 1076.57 1383.53 1065.81 1386.97 1056.18 C 1391.78 1042.97 1392.86 1028.93 1393.05 1014.98 z"/>
<path transform="translate(0,0)" fill="rgb(166,176,178)" d="M 1372.94 1086.33 C 1382.31 1094.24 1438.31 1090.43 1444.64 1100.56 C 1443.1 1112.63 1372.19 1099.19 1362.6 1096.99 C 1365.91 1093.26 1369.13 1089.57 1372.94 1086.33 z"/>
<path transform="translate(0,0)" fill="rgb(151,161,162)" d="M 1157.66 1188.96 L 1163.23 1188.96 C 1171.08 1201.19 1181.98 1227.01 1183.58 1241.6 L 1177.91 1241.6 C 1175.94 1241.75 1174.03 1241.67 1172.07 1241.6 L 1169.06 1236.87 C 1163.31 1225.37 1156.58 1201.88 1154.8 1188.96 L 1157.66 1188.96 z"/>
<path transform="translate(0,0)" fill="rgb(151,161,162)" d="M 1287.63 1151.8 L 1298.32 1144.79 C 1314.96 1156.98 1334.6 1164.05 1351.74 1175.42 C 1341.12 1181.88 1296.81 1157.74 1287.63 1151.8 z"/>
<path transform="translate(0,0)" fill="rgb(102,105,106)" d="M 1172.07 1241.6 C 1174.03 1241.67 1175.94 1241.75 1177.91 1241.6 C 1182.78 1257.67 1177.38 1290.68 1176.5 1308.04 L 1172.75 1395.36 C 1171.55 1423.32 1172.77 1466.94 1167.27 1493.73 L 1157.66 1493.73 C 1156.87 1477.07 1158.08 1460.19 1158.79 1443.53 L 1162.26 1368.68 C 1164.46 1326.5 1165.02 1283.61 1169.06 1241.6 L 1172.07 1241.6 z"/>
<path transform="translate(0,0)" fill="rgb(166,176,178)" d="M 857.753 1537.62 L 863.96 1537.62 C 901.031 1543.26 938.639 1544.72 974.547 1550.17 C 982.798 1550.09 991.045 1549.98 999.296 1550.17 C 1050.43 1549.58 1099.47 1546.79 1150.1 1537.62 C 1151.69 1557.73 1150.33 1652.71 1145.54 1673.18 C 1145.53 1688.11 1146.94 1706.5 1143.75 1721.04 C 1143.69 1728.46 1140.06 1764.73 1145.54 1768.02 C 1109.19 1774.7 1073.68 1779.34 1036.79 1781.82 C 997.242 1786.16 911.064 1778.52 876.12 1768.02 C 873.721 1767.72 871.614 1767.85 869.215 1768.02 C 874.4 1710.64 854.585 1613.37 854.797 1547.28 C 855.132 1543.86 856.53 1540.79 857.753 1537.62 z"/>
<path transform="translate(0,0)" fill="rgb(151,161,162)" d="M 999.296 1550.17 C 1050.43 1549.58 1099.47 1546.79 1150.1 1537.62 C 1151.69 1557.73 1150.33 1652.71 1145.54 1673.18 C 1145.53 1688.11 1146.94 1706.5 1143.75 1721.04 C 1143.69 1728.46 1140.06 1764.73 1145.54 1768.02 C 1109.19 1774.7 1073.68 1779.34 1036.79 1781.82 C 1031.53 1781.26 1026.14 1781.67 1020.86 1781.82 C 1017.69 1722.66 1022.97 1601.99 1012.05 1550.17 C 1008.72 1550.64 1002.06 1551.97 999.296 1550.17 z"/>
<path transform="translate(0,0)" fill="rgb(133,137,138)" d="M 1145.54 1673.18 C 1145.53 1688.11 1146.94 1706.5 1143.75 1721.04 C 1143.72 1706.28 1138.42 1714.07 1123.96 1717.59 C 1109.95 1721 1080.69 1724.77 1067.43 1718.66 C 1057.86 1714.24 1095.5 1700.45 1097.81 1699.24 C 1113.77 1690.87 1129.35 1680.94 1145.54 1673.18 z"/>
<path transform="translate(0,0)" fill="rgb(151,161,162)" d="M 857.753 1537.62 L 863.96 1537.62 C 901.031 1543.26 938.639 1544.72 974.547 1550.17 C 960.696 1555.53 892.63 1542.46 872.604 1540.87 C 871.202 1540.76 867.773 1540.22 867.105 1541.61 C 857.2 1562.26 887.741 1762.86 876.12 1768.02 C 873.721 1767.72 871.614 1767.85 869.215 1768.02 C 874.4 1710.64 854.585 1613.37 854.797 1547.28 C 855.132 1543.86 856.53 1540.79 857.753 1537.62 z"/>
<path transform="translate(0,0)" fill="rgb(133,137,138)" d="M 857.753 1537.62 L 863.96 1537.62 C 865.703 1548.07 865.292 1549.28 854.797 1547.28 C 855.132 1543.86 856.53 1540.79 857.753 1537.62 z"/>
<path transform="translate(0,0)" fill="rgb(133,137,138)" d="M 1150.1 1537.62 C 1228.89 1523.27 1303.15 1500.75 1367.85 1451.92 C 1382.13 1441.14 1392.77 1426.23 1407.31 1415.79 C 1402.33 1466.77 1389.81 1523.98 1382.09 1576.13 C 1374.19 1629.54 1369.41 1650.64 1325.69 1686.82 C 1271.52 1731.65 1211.7 1749.5 1145.54 1768.02 C 1140.06 1764.73 1143.69 1728.46 1143.75 1721.04 C 1146.94 1706.5 1145.53 1688.11 1145.54 1673.18 C 1150.33 1652.71 1151.69 1557.73 1150.1 1537.62 z"/>
<path transform="translate(0,0)" fill="rgb(166,176,178)" d="M 605.619 1421.64 C 614.081 1425.82 626.564 1442.65 635.612 1449.61 C 656.679 1465.81 679.942 1478.59 703.416 1490.89 C 760.626 1514.21 801.344 1521.79 857.753 1537.62 C 856.53 1540.79 855.132 1543.86 854.797 1547.28 C 854.585 1613.37 874.4 1710.64 869.215 1768.02 C 832.353 1760.63 767.482 1742.45 736.57 1721.04 C 706.21 1706.2 673.082 1682.4 656.956 1652.18 C 647.648 1634.74 609.961 1452.91 605.619 1421.64 z"/>
<path transform="translate(0,0)" fill="rgb(151,161,162)" d="M 703.416 1490.89 C 760.626 1514.21 801.344 1521.79 857.753 1537.62 C 856.53 1540.79 855.132 1543.86 854.797 1547.28 L 852.881 1546.68 C 844.03 1543.99 834.457 1542.62 825.403 1540.64 C 781.556 1531.06 751.549 1514.11 712.592 1502.34 C 718.249 1548.97 723.311 1595.13 727.716 1641.86 C 729.109 1656.65 733.508 1680.11 732.163 1693.83 L 730.331 1692.85 C 723.941 1674.49 715.251 1578.82 712.592 1556.06 C 678.801 1555.64 654.84 1546.18 642.426 1512.2 C 666.455 1523.83 686.14 1543.55 712.592 1550.17 C 709.49 1530.43 706.017 1510.7 703.416 1490.89 z"/>
<path transform="translate(0,0)" fill="rgb(140,84,71)" d="M 579.126 1302.46 C 585.567 1309.4 586.407 1327.59 589.476 1336.98 C 606.918 1390.35 653.165 1412.26 694.916 1441.61 L 703.416 1445.19 C 755.88 1471.11 791.425 1481.02 848.132 1493.73 C 902.354 1503.98 956.883 1509.23 1012.05 1509.04 C 1056.2 1509.3 1115.08 1505.09 1157.66 1493.73 L 1167.27 1493.73 C 1255.91 1465.56 1370.39 1442.09 1415.25 1348 C 1421.3 1335.31 1423.5 1318.75 1435 1309.49 C 1439.47 1372.98 1428.51 1369.09 1407.31 1415.79 C 1392.77 1426.23 1382.13 1441.14 1367.85 1451.92 C 1303.15 1500.75 1228.89 1523.27 1150.1 1537.62 C 1099.47 1546.79 1050.43 1549.58 999.296 1550.17 C 991.045 1549.98 982.798 1550.09 974.547 1550.17 C 938.639 1544.72 901.031 1543.26 863.96 1537.62 L 857.753 1537.62 C 801.344 1521.79 760.626 1514.21 703.416 1490.89 C 679.942 1478.59 656.679 1465.81 635.612 1449.61 C 626.564 1442.65 614.081 1425.82 605.619 1421.64 C 583.388 1376.59 560.656 1363.77 579.126 1302.46 z"/>
<path transform="translate(0,0)" fill="rgb(166,176,178)" d="M 532.667 1078.18 L 533.588 1077.71 L 548.108 1101.73 C 565.593 1089.45 602.763 1089.41 624.1 1084.37 L 624.1 1084.37 L 628.326 1089.35 C 642.443 1106.9 660.812 1119.36 679.682 1131.33 C 684.686 1134.32 689.628 1137.35 694.916 1139.82 C 704.227 1145.75 712.17 1148.95 722.818 1151.8 C 704.807 1163.34 684.318 1169.69 666.985 1182.25 L 666.985 1185.96 L 666.985 1188.96 L 671.761 1188.96 L 674.125 1192.85 C 682.45 1254.88 689.217 1317.11 696.169 1379.31 C 698.227 1397.72 704.953 1427.84 703.416 1445.19 L 694.916 1441.61 C 653.165 1412.26 606.918 1390.35 589.476 1336.98 C 586.407 1327.59 585.567 1309.4 579.126 1302.46 C 581.059 1280.46 561.149 1213.55 555.515 1187.69 L 532.667 1078.18 z"/>
<path transform="translate(0,0)" fill="rgb(188,200,203)" d="M 628.326 1089.35 C 642.443 1106.9 660.812 1119.36 679.682 1131.33 C 684.686 1134.32 689.628 1137.35 694.916 1139.82 C 704.227 1145.75 712.17 1148.95 722.818 1151.8 C 704.807 1163.34 684.318 1169.69 666.985 1182.25 C 656.934 1172.41 634.17 1162.44 621.284 1154.01 C 598.929 1139.39 578.64 1122.51 558.975 1104.5 C 582.463 1101.94 605.578 1095.57 628.326 1089.35 z"/>
<path transform="translate(0,0)" fill="rgb(151,161,162)" d="M 666.985 1188.96 L 671.761 1188.96 L 674.125 1192.85 C 682.45 1254.88 689.217 1317.11 696.169 1379.31 C 698.227 1397.72 704.953 1427.84 703.416 1445.19 L 694.916 1441.61 C 689.639 1357.14 672.539 1273.6 666.985 1188.96 z"/>
<path transform="translate(0,0)" fill="rgb(248,250,250)" d="M 666.985 1185.96 C 658.206 1193.68 566.585 1123.07 555.345 1106.29 L 555.93 1104.88 L 558.975 1104.5 C 578.64 1122.51 598.929 1139.39 621.284 1154.01 C 634.17 1162.44 656.934 1172.41 666.985 1182.25 L 666.985 1185.96 z"/>
<path transform="translate(0,0)" fill="rgb(151,161,162)" d="M 613.946 1236.87 C 636.476 1240.58 655.784 1277.02 662.201 1296.18 C 640.016 1294.81 618.474 1255.42 613.946 1236.87 z"/>
<path transform="translate(0,0)" fill="rgb(188,200,203)" d="M 722.818 1151.8 C 727.261 1155.04 731.534 1158.27 736.57 1160.56 C 758.178 1165.43 796.72 1177.46 817.31 1185.96 L 823.314 1185.96 L 857.753 1192.85 C 850.488 1202.83 832.31 1219.79 833.918 1232.88 L 833.918 1241.6 C 777.946 1224.22 731.48 1220.73 674.125 1192.85 L 671.761 1188.96 L 666.985 1188.96 L 666.985 1185.96 L 666.985 1182.25 C 684.318 1169.69 704.807 1163.34 722.818 1151.8 z"/>
<path transform="translate(0,0)" fill="rgb(248,250,250)" d="M 674.125 1185.96 C 723.73 1204.64 760.096 1216.65 811.431 1227.99 C 818.402 1229.53 827.496 1230.25 833.918 1232.88 L 833.918 1241.6 C 777.946 1224.22 731.48 1220.73 674.125 1192.85 L 671.761 1188.96 L 674.125 1185.96 z"/>
<path transform="translate(0,0)" fill="rgb(151,161,162)" d="M 722.818 1151.8 C 727.261 1155.04 731.534 1158.27 736.57 1160.56 C 727.135 1165.32 682.418 1186.22 674.125 1185.96 L 671.761 1188.96 L 666.985 1188.96 L 666.985 1185.96 L 666.985 1182.25 C 684.318 1169.69 704.807 1163.34 722.818 1151.8 z"/>
<path transform="translate(0,0)" fill="rgb(183,133,107)" d="M 1251.04 509.533 C 1256.93 515.072 1315.09 517.869 1328.05 519.966 L 1328.05 519.966 C 1341.3 523.71 1361.6 525.944 1375.4 526.22 C 1375.23 522.167 1375.3 518.161 1375.4 514.107 L 1375.4 514.107 L 1375.4 901.85 C 1403.39 916.78 1431 937.814 1447.51 965.301 C 1449.43 966.909 1451.38 968.439 1453.1 970.27 C 1458.52 983.147 1463.88 995.944 1470.36 1008.34 L 1470.36 1014.98 L 1393.05 1014.98 C 1392.86 1028.93 1391.78 1042.97 1386.97 1056.18 C 1383.53 1065.81 1379.81 1076.57 1372.94 1084.37 L 1372.94 1086.33 C 1369.13 1089.57 1365.91 1093.26 1362.6 1096.99 C 1351.74 1107.92 1340.48 1117.54 1328.05 1126.66 C 1318.43 1133.18 1308.84 1139.75 1298.32 1144.79 L 1287.63 1151.8 C 1277.91 1154.27 1268.54 1157.3 1259.08 1160.56 C 1257.89 1151.97 1255.53 1144.42 1252.6 1136.31 L 1252.6 1131.33 C 1252.95 1119.85 1252.86 1108.46 1252.6 1096.99 L 1252.6 1078.18 C 1254.65 1068.52 1252.69 1052.47 1252.6 1042.14 C 1255.3 1023.3 1253.93 954.87 1252.6 935.092 C 1252.71 924.008 1252.72 912.935 1252.6 901.85 C 1252.21 882.713 1252.29 863.472 1252.6 844.334 C 1253.33 821.472 1253.27 797.873 1252.6 775.004 C 1254.36 768.666 1252.12 748.476 1252.6 740.263 L 1252.6 732.308 C 1253.43 723.665 1252.73 714.659 1252.68 705.972 L 1252.63 660.27 C 1252.62 610.026 1253.46 559.727 1251.04 509.533 z"/>
<path transform="translate(0,0)" fill="rgb(154,100,76)" d="M 1375.4 514.107 L 1375.4 514.107 L 1375.4 901.85 C 1403.39 916.78 1431 937.814 1447.51 965.301 C 1449.43 966.909 1451.38 968.439 1453.1 970.27 C 1458.52 983.147 1463.88 995.944 1470.36 1008.34 L 1470.36 1014.98 L 1393.05 1014.98 C 1392.86 1028.93 1391.78 1042.97 1386.97 1056.18 C 1383.53 1065.81 1379.81 1076.57 1372.94 1084.37 L 1372.94 1086.33 C 1369.13 1089.57 1365.91 1093.26 1362.6 1096.99 C 1351.74 1107.92 1340.48 1117.54 1328.05 1126.66 C 1326.22 1112.05 1327.97 1095.48 1328 1080.62 L 1328.1 573.654 C 1328.16 555.851 1328.97 537.74 1328.05 519.966 L 1328.05 519.966 C 1341.3 523.71 1361.6 525.944 1375.4 526.22 C 1375.23 522.167 1375.3 518.161 1375.4 514.107 z"/>
<path transform="translate(0,0)" fill="rgb(188,200,203)" d="M 1375.4 977.458 C 1398.41 972.88 1424.23 966.24 1447.51 965.301 C 1449.43 966.909 1451.38 968.439 1453.1 970.27 C 1458.52 983.147 1463.88 995.944 1470.36 1008.34 L 1470.36 1014.98 L 1393.05 1014.98 C 1392.86 1028.93 1391.78 1042.97 1386.97 1056.18 C 1383.7 1049.83 1380.31 1021.55 1375.4 1008.34 C 1374.16 997.965 1374.79 987.836 1375.4 977.458 z"/>
<path transform="translate(0,0)" fill="rgb(151,161,162)" d="M 1375.4 977.458 C 1398.41 972.88 1424.23 966.24 1447.51 965.301 C 1449.43 966.909 1451.38 968.439 1453.1 970.27 C 1434.37 978.494 1404.13 978.807 1381.08 987.492 C 1384.43 994.886 1388.66 1001.53 1393.05 1008.34 C 1418.88 1010.07 1444.56 1005.86 1470.36 1008.34 L 1470.36 1014.98 L 1393.05 1014.98 C 1392.86 1028.93 1391.78 1042.97 1386.97 1056.18 C 1383.7 1049.83 1380.31 1021.55 1375.4 1008.34 C 1374.16 997.965 1374.79 987.836 1375.4 977.458 z"/>
<path transform="translate(0,0)" fill="rgb(188,200,203)" d="M 1375.4 901.85 C 1403.39 916.78 1431 937.814 1447.51 965.301 C 1424.23 966.24 1398.41 972.88 1375.4 977.458 L 1375.4 901.85 z"/>
<path transform="translate(0,0)" fill="rgb(102,105,106)" d="M 1375.4 1008.34 C 1380.31 1021.55 1383.7 1049.83 1386.97 1056.18 C 1383.53 1065.81 1379.81 1076.57 1372.94 1084.37 L 1371.65 1082.76 C 1370.24 1075.85 1372.99 1014.94 1375.4 1008.34 z"/>
<path transform="translate(0,0)" fill="rgb(212,160,124)" d="M 1252.6 331.582 C 1268.09 322.04 1281.63 309.947 1298.32 302.372 C 1324.21 308.767 1351.65 309.837 1377.82 315.274 C 1377.87 322.337 1377.96 329.401 1377.82 336.464 C 1378.03 353.585 1377.88 370.713 1377.82 387.835 C 1403.32 391.311 1514.29 405.423 1531.67 416.409 C 1543.39 423.045 1558.89 451.142 1565.35 463.537 L 1508.33 496.947 C 1501.36 500.996 1494.4 505.892 1487.27 509.533 C 1484.18 511.467 1481.21 512.843 1477.79 514.107 C 1444.72 505.835 1409.16 502.6 1375.4 497.508 L 1375.4 514.107 L 1375.4 514.107 C 1375.3 518.161 1375.23 522.167 1375.4 526.22 C 1361.6 525.944 1341.3 523.71 1328.05 519.966 L 1328.05 519.966 C 1315.09 517.869 1256.93 515.072 1251.04 509.533 L 1251.04 479.174 C 1205.32 472.475 1133.9 454.302 1089.73 454.856 C 1062.68 445.911 1050.58 419.616 1055.18 392.114 C 1072.01 328.867 1097.65 353.03 1116.93 343.928 C 1123 350.063 1235.16 364.757 1252.6 366.672 C 1252.76 355.237 1251.36 343.97 1251.41 332.591 L 1252.6 331.582 z"/>
<path transform="translate(0,0)" fill="rgb(183,133,107)" d="M 1089.73 454.856 C 1062.68 445.911 1050.58 419.616 1055.18 392.114 C 1060.94 396.945 1071.28 395.607 1078.49 396.695 L 1376.58 445.939 C 1390.41 448.22 1440.52 453.608 1450.52 458.125 C 1461.29 475.886 1474.08 493.479 1487.27 509.533 C 1484.18 511.467 1481.21 512.843 1477.79 514.107 C 1444.72 505.835 1409.16 502.6 1375.4 497.508 L 1375.4 514.107 L 1375.4 514.107 C 1375.3 518.161 1375.23 522.167 1375.4 526.22 C 1361.6 525.944 1341.3 523.71 1328.05 519.966 L 1328.05 519.966 C 1315.09 517.869 1256.93 515.072 1251.04 509.533 L 1251.04 479.174 C 1205.32 472.475 1133.9 454.302 1089.73 454.856 z"/>
<path transform="translate(0,0)" fill="rgb(154,100,76)" d="M 1251.04 479.174 C 1269.11 478.569 1308.16 487.444 1328.05 490.276 C 1327.9 500.184 1327.85 510.057 1328.05 519.966 L 1328.05 519.966 C 1315.09 517.869 1256.93 515.072 1251.04 509.533 L 1251.04 479.174 z"/>
<path transform="translate(0,0)" fill="rgb(140,84,71)" d="M 1328.05 490.276 C 1343.32 493.137 1359.92 496.617 1375.4 497.508 L 1375.4 514.107 C 1375.3 518.161 1375.23 522.167 1375.4 526.22 C 1361.6 525.944 1341.3 523.71 1328.05 519.966 C 1327.85 510.057 1327.9 500.184 1328.05 490.276 z"/>
<path transform="translate(0,0)" fill="rgb(154,100,76)" d="M 1531.67 416.409 C 1543.39 423.045 1558.89 451.142 1565.35 463.537 L 1508.33 496.947 C 1501.36 500.996 1494.4 505.892 1487.27 509.533 C 1474.08 493.479 1461.29 475.886 1450.52 458.125 C 1468.87 451.768 1515.43 426.236 1531.67 416.409 z"/>
<path transform="translate(0,0)" fill="rgb(183,133,107)" d="M 1252.6 331.582 C 1268.09 322.04 1281.63 309.947 1298.32 302.372 C 1324.21 308.767 1351.65 309.837 1377.82 315.274 C 1365.67 321.546 1336.77 335.554 1328.05 343.928 C 1310.74 342.265 1266.71 335.783 1252.6 331.582 z"/>
<path transform="translate(0,0)" fill="rgb(154,100,76)" d="M 1252.6 331.582 C 1266.71 335.783 1310.74 342.265 1328.05 343.928 C 1330.32 355.881 1328.86 367.213 1328.05 379.217 C 1303.08 375.638 1277.23 372.052 1252.6 366.672 C 1252.76 355.237 1251.36 343.97 1251.41 332.591 L 1252.6 331.582 z"/>
<path transform="translate(0,0)" fill="rgb(154,100,76)" d="M 1377.82 315.274 C 1377.87 322.337 1377.96 329.401 1377.82 336.464 C 1375.25 353.739 1375.34 370.414 1375.4 387.835 C 1359.77 384.361 1343.89 381.629 1328.05 379.217 C 1328.86 367.213 1330.32 355.881 1328.05 343.928 C 1336.77 335.554 1365.67 321.546 1377.82 315.274 z"/>
<path transform="translate(0,0)" fill="rgb(212,160,124)" d="M 674.125 258.586 C 690.571 222.891 773.048 247.204 799.065 250.487 C 799.059 264.362 798.686 278.337 799.065 292.2 C 801.5 305.759 837.061 303.58 852.023 305.705 C 889.357 311.009 930.749 321.668 967.113 325.325 C 961.328 338.416 956.456 349.53 955.631 364.066 C 956.591 386.002 955.663 408.215 955.631 430.186 C 934.173 428.502 912.721 423.718 891.478 420.292 L 799.065 405.953 C 791.645 402.962 760.056 400.519 748.742 398.385 C 738.072 394.579 691.517 390.057 677.008 387.835 C 636.905 379.368 547.656 364.278 511.243 364.066 C 504.098 343.406 496.795 322.597 488.497 302.372 C 483.609 287.84 507.754 282.911 517.34 278.179 C 583.412 245.559 602.662 269.532 677.008 278.758 C 676.633 271.804 675.64 265.381 674.125 258.586 z"/>
<path transform="translate(0,0)" fill="rgb(183,133,107)" d="M 488.497 302.372 C 494.781 297.884 504.693 300.744 511.788 301.924 L 885.176 367.868 C 908.437 372.085 932.109 376.871 955.631 379.217 C 955.408 374.407 954.551 368.758 955.631 364.066 C 956.591 386.002 955.663 408.215 955.631 430.186 C 934.173 428.502 912.721 423.718 891.478 420.292 L 799.065 405.953 C 791.645 402.962 760.056 400.519 748.742 398.385 C 738.072 394.579 691.517 390.057 677.008 387.835 C 636.905 379.368 547.656 364.278 511.243 364.066 C 504.098 343.406 496.795 322.597 488.497 302.372 z"/>
<path transform="translate(0,0)" fill="rgb(212,160,124)" d="M 674.125 258.586 C 690.571 222.891 773.048 247.204 799.065 250.487 C 799.059 264.362 798.686 278.337 799.065 292.2 C 798.158 303.295 762.512 292.141 746.633 292.2 C 723.821 284.834 700.047 284.557 677.008 278.758 C 676.633 271.804 675.64 265.381 674.125 258.586 z"/>
<path transform="translate(0,0)" fill="rgb(154,100,76)" d="M 799.065 250.487 C 799.059 264.362 798.686 278.337 799.065 292.2 C 798.158 303.295 762.512 292.141 746.633 292.2 C 746.427 285.31 745.959 278.326 746.633 271.457 C 765.274 264.68 778.429 255.623 799.065 250.487 z"/>
<path transform="translate(0,0)" fill="rgb(154,100,76)" d="M 674.125 258.586 C 698.033 264.287 722.062 269.596 746.633 271.457 C 745.959 278.326 746.427 285.31 746.633 292.2 C 723.821 284.834 700.047 284.557 677.008 278.758 C 676.633 271.804 675.64 265.381 674.125 258.586 z"/>
<path transform="translate(0,0)" fill="rgb(154,100,76)" d="M 869.215 616.559 C 882.007 583.29 892.682 583.469 923.723 593.764 C 930.748 592.638 937.147 592.475 944.162 593.764 C 957.193 596.142 970.685 597.967 983.516 601.186 C 984.658 601.169 985.893 601.063 987.025 601.186 C 992.941 602.4 998.866 603.542 1004.7 605.126 L 1004.7 605.126 C 1009.73 605.643 1015.85 606.176 1020.86 605.126 C 1028.13 606.967 1035.27 609.11 1042.79 609.565 C 1048.88 610.556 1055.29 611.256 1061.26 612.798 C 1070.71 613.543 1080.47 614.474 1089.73 616.559 C 1097.88 616.977 1105.77 617.875 1113.82 619.167 C 1136.2 625.472 1139.45 646.771 1140.3 667.489 C 1136.88 666.036 1133.28 664.956 1129.76 663.775 C 1127.06 673.794 1128.38 684.066 1125.85 693.751 C 1129.17 695.605 1132.58 697.244 1135.24 700.011 C 1129.54 719.497 1118.32 760.724 1089.73 749.456 C 1084.47 749.068 1078.96 749.409 1073.68 749.456 C 1061.37 746.238 1049.22 742.999 1036.79 740.263 C 1031.4 739.194 1026.05 738.249 1020.86 736.426 L 977.414 728.735 C 977.193 722.691 969.427 711.317 967.113 704.277 L 967.113 704.277 C 962.36 703.636 957.088 701.696 952.589 700.011 C 939.188 698.96 924.825 700.167 911.296 700.011 L 911.296 700.011 C 906.756 699.066 902.239 697.436 897.707 696.318 L 897.707 696.318 C 888.42 695.13 878.124 692.602 869.215 696.318 C 863.1 678.847 863.012 663.2 863.96 644.994 C 865.383 638.309 867.383 631.717 869.215 625.132 L 869.215 616.559 z"/>
<path transform="translate(0,0)" fill="rgb(154,100,76)" d="M 869.215 616.559 C 882.007 583.29 892.682 583.469 923.723 593.764 C 930.748 592.638 937.147 592.475 944.162 593.764 C 957.193 596.142 970.685 597.967 983.516 601.186 C 967.752 634.617 939.357 642.699 952.589 700.011 C 939.188 698.96 924.825 700.167 911.296 700.011 L 911.296 700.011 C 906.756 699.066 902.239 697.436 897.707 696.318 L 897.707 696.318 C 888.42 695.13 878.124 692.602 869.215 696.318 C 863.1 678.847 863.012 663.2 863.96 644.994 C 865.383 638.309 867.383 631.717 869.215 625.132 L 869.215 616.559 z"/>
<path transform="translate(0,0)" fill="rgb(154,100,76)" d="M 869.215 616.559 C 882.007 583.29 892.682 583.469 923.723 593.764 C 900.328 627.649 882.171 646.292 897.707 696.318 C 888.42 695.13 878.124 692.602 869.215 696.318 C 863.1 678.847 863.012 663.2 863.96 644.994 C 865.383 638.309 867.383 631.717 869.215 625.132 L 869.215 616.559 z"/>
<path transform="translate(0,0)" fill="rgb(212,160,124)" d="M 923.723 593.764 C 930.748 592.638 937.147 592.475 944.162 593.764 C 910.105 620.389 900.373 659.103 911.296 700.011 C 906.756 699.066 902.239 697.436 897.707 696.318 L 897.707 696.318 C 882.171 646.292 900.328 627.649 923.723 593.764 z"/>
<path transform="translate(0,0)" fill="rgb(154,100,76)" d="M 983.516 601.186 C 984.658 601.169 985.893 601.063 987.025 601.186 C 992.941 602.4 998.866 603.542 1004.7 605.126 L 1004.7 605.126 C 1009.73 605.643 1015.85 606.176 1020.86 605.126 C 1028.13 606.967 1035.27 609.11 1042.79 609.565 C 1020.62 646.974 1000.97 646.339 1007.15 707.431 C 1009.81 719.048 1017.15 726.178 1020.86 736.426 L 977.414 728.735 C 977.193 722.691 969.427 711.317 967.113 704.277 L 967.113 704.277 C 962.36 703.636 957.088 701.696 952.589 700.011 C 939.357 642.699 967.752 634.617 983.516 601.186 z"/>
<path transform="translate(0,0)" fill="rgb(212,160,124)" d="M 983.516 601.186 C 984.658 601.169 985.893 601.063 987.025 601.186 C 992.941 602.4 998.866 603.542 1004.7 605.126 L 1004.7 605.126 C 971.434 623.671 955.213 668.552 967.113 704.277 C 962.36 703.636 957.088 701.696 952.589 700.011 C 939.357 642.699 967.752 634.617 983.516 601.186 z"/>
<path transform="translate(0,0)" fill="rgb(140,84,71)" d="M 967.113 704.277 C 979.496 702.9 994.67 706.038 1007.15 707.431 C 1009.81 719.048 1017.15 726.178 1020.86 736.426 L 977.414 728.735 C 977.193 722.691 969.427 711.317 967.113 704.277 z"/>
<path transform="translate(0,0)" fill="rgb(154,100,76)" d="M 1042.79 609.565 C 1048.88 610.556 1055.29 611.256 1061.26 612.798 C 1070.71 613.543 1080.47 614.474 1089.73 616.559 C 1067.58 657.207 1051.07 655.563 1061.26 718.737 C 1064.01 726.745 1074.8 742.172 1075.12 748.33 L 1073.68 749.456 C 1061.37 746.238 1049.22 742.999 1036.79 740.263 C 1031.4 739.194 1026.05 738.249 1020.86 736.426 C 1017.15 726.178 1009.81 719.048 1007.15 707.431 C 1000.97 646.339 1020.62 646.974 1042.79 609.565 z"/>
<path transform="translate(0,0)" fill="rgb(212,160,124)" d="M 1042.79 609.565 C 1048.88 610.556 1055.29 611.256 1061.26 612.798 C 1038.3 631.421 1005.47 682.453 1024.55 713.017 C 1026.61 720.684 1036.57 736.843 1036.79 740.263 C 1031.4 739.194 1026.05 738.249 1020.86 736.426 C 1017.15 726.178 1009.81 719.048 1007.15 707.431 C 1000.97 646.339 1020.62 646.974 1042.79 609.565 z"/>
<path transform="translate(0,0)" fill="rgb(140,84,71)" d="M 1024.55 713.017 C 1036.44 712.545 1050.04 714.711 1061.26 718.737 C 1064.01 726.745 1074.8 742.172 1075.12 748.33 L 1073.68 749.456 C 1061.37 746.238 1049.22 742.999 1036.79 740.263 C 1036.57 736.843 1026.61 720.684 1024.55 713.017 z"/>
<path transform="translate(0,0)" fill="url(#Gradient4)" d="M 1089.73 616.559 C 1097.88 616.977 1105.77 617.875 1113.82 619.167 C 1109.16 622.509 1103.63 624.382 1099.1 627.796 C 1071.86 648.309 1059.25 707.287 1078.78 736.039 C 1082.06 740.864 1086.38 744.755 1089.73 749.456 C 1084.47 749.068 1078.96 749.409 1073.68 749.456 L 1075.12 748.33 C 1074.8 742.172 1064.01 726.745 1061.26 718.737 C 1051.07 655.563 1067.58 657.207 1089.73 616.559 z"/>
<path transform="translate(0,0)" fill="rgb(70,72,73)" d="M 1082.25 688.43 C 1085.86 632.985 1105.11 659.004 1129.76 663.775 C 1127.06 673.794 1128.38 684.066 1125.85 693.751 C 1120.07 691.635 1114.42 689.858 1108.43 688.43 L 1100.02 688.43 C 1094.09 688.364 1088.18 688.39 1082.25 688.43 z"/>
<path transform="translate(0,0)" fill="rgb(140,84,71)" d="M 1100.02 688.43 L 1108.43 688.43 C 1109.9 692.393 1111.98 696.208 1113.82 700.011 C 1111.6 706.714 1108.95 717.911 1101.99 720.962 L 1100.36 719.698 C 1096.65 710.315 1099.13 698.291 1100.02 688.43 z"/>
<path transform="translate(0,0)" fill="rgb(102,105,106)" d="M 967.113 325.325 C 1009.03 279.796 1028.65 298.552 1087.12 309.284 C 1102.82 314.731 1111.56 329.078 1116.93 343.928 C 1097.65 353.03 1072.01 328.867 1055.18 392.114 C 1050.58 419.616 1062.68 445.911 1089.73 454.856 C 1075.35 467.14 1059.02 473.328 1040.28 469.645 C 1033.78 469.353 1027.34 469.739 1020.86 469.645 L 1020.79 557.21 C 1020.73 573.15 1019.66 589.227 1020.86 605.126 C 1015.85 606.176 1009.73 605.643 1004.7 605.126 L 1004.7 605.126 C 998.866 603.542 992.941 602.4 987.025 601.186 L 987.025 463.537 C 976.694 460.179 965.992 458.144 955.631 454.856 C 955.276 446.569 955.14 438.469 955.631 430.186 C 955.663 408.215 956.591 386.002 955.631 364.066 C 956.456 349.53 961.328 338.416 967.113 325.325 z"/>
<path transform="translate(0,0)" fill="rgb(133,137,138)" d="M 967.113 325.325 C 1009.03 279.796 1028.65 298.552 1087.12 309.284 C 1102.82 314.731 1111.56 329.078 1116.93 343.928 C 1097.65 353.03 1072.01 328.867 1055.18 392.114 C 1050.58 419.616 1062.68 445.911 1089.73 454.856 C 1075.35 467.14 1059.02 473.328 1040.28 469.645 C 1031.94 452.592 1030.91 397.251 1036.79 379.217 C 1010.33 372.47 982.488 369.138 955.631 364.066 C 956.456 349.53 961.328 338.416 967.113 325.325 z"/>
<path transform="translate(0,0)" fill="rgb(70,72,73)" d="M 1087.12 309.284 C 1102.82 314.731 1111.56 329.078 1116.93 343.928 C 1097.65 353.03 1072.01 328.867 1055.18 392.114 C 1050.58 419.616 1062.68 445.911 1089.73 454.856 C 1075.35 467.14 1059.02 473.328 1040.28 469.645 C 1031.94 452.592 1030.91 397.251 1036.79 379.217 C 1039.75 340.738 1058.18 329.069 1085.73 310.25 L 1087.12 309.284 z"/>
<path transform="translate(0,0)" fill="rgb(133,137,138)" d="M 987.025 463.537 C 992.957 463.219 998.764 463.312 1004.7 463.537 L 1004.7 605.126 C 998.866 603.542 992.941 602.4 987.025 601.186 L 987.025 463.537 z"/>
<path transform="translate(0,0)" fill="url(#Gradient3)" d="M 1450.52 1485.09 C 1476.04 1484.21 1527.09 1505.49 1539.68 1525.84 C 1553.42 1548.07 1532.94 1575.73 1508.11 1569.95 C 1494.22 1568.2 1489.47 1575.48 1477.69 1580.31 C 1416.95 1605.17 1405.02 1498.59 1450.52 1485.09 z"/>
<path transform="translate(0,0)" fill="rgb(201,28,39)" d="M 1440.12 1531.08 C 1433.41 1522.81 1433.05 1511.91 1436.33 1501.9 C 1443.52 1479.97 1474.15 1496.92 1487.27 1502.34 C 1500.64 1504.9 1523.89 1512.67 1527.64 1527.87 L 1526.86 1529.8 C 1520.43 1532.38 1513.7 1527.44 1508.11 1524.59 L 1509 1527.3 C 1505.82 1528.6 1492.11 1527.22 1483.09 1530.29 C 1469.76 1534.83 1460.07 1544.79 1447.51 1550.17 C 1443.03 1546.65 1432.51 1536.86 1437.63 1530.77 L 1440.12 1531.08 z"/>
<path transform="translate(0,0)" fill="rgb(237,134,138)" d="M 1440.12 1531.08 C 1433.41 1522.81 1433.05 1511.91 1436.33 1501.9 C 1443.52 1479.97 1474.15 1496.92 1487.27 1502.34 C 1485.5 1504.68 1483.73 1506.9 1481.71 1509.04 C 1463.24 1513.76 1450.16 1531 1440.12 1531.08 z"/>
<path transform="translate(0,0)" fill="rgb(241,81,93)" d="M 1487.27 1502.34 C 1500.64 1504.9 1523.89 1512.67 1527.64 1527.87 L 1526.86 1529.8 C 1520.43 1532.38 1513.7 1527.44 1508.11 1524.59 C 1500.96 1518.29 1490.42 1512.85 1481.71 1509.04 C 1483.73 1506.9 1485.5 1504.68 1487.27 1502.34 z"/>
<path transform="translate(0,0)" fill="url(#Gradient2)" d="M 1129.76 663.775 C 1133.28 664.956 1136.88 666.036 1140.3 667.489 C 1141.51 667.596 1142.57 667.83 1143.75 667.489 C 1182.92 681.251 1224.68 700.736 1252.6 732.308 L 1252.6 740.263 C 1252.12 748.476 1254.36 768.666 1252.6 775.004 C 1236.03 756.34 1159.78 704.228 1135.24 700.011 C 1132.58 697.244 1129.17 695.605 1125.85 693.751 C 1128.38 684.066 1127.06 673.794 1129.76 663.775 z"/>
<path transform="translate(0,0)" fill="rgb(133,137,138)" d="M 1143.75 667.489 C 1182.92 681.251 1224.68 700.736 1252.6 732.308 L 1252.6 740.263 C 1233.05 727.033 1215.14 711.678 1195.15 698.988 C 1184.41 692.175 1146.93 677.641 1143.75 667.489 z"/>
<path transform="translate(0,0)" fill="rgb(102,105,106)" d="M 799.065 619.167 C 807.589 621.65 843.052 608.916 869.215 616.559 L 869.215 625.132 C 867.383 631.717 865.383 638.309 863.96 644.994 C 841.418 644.496 821.281 645.663 799.065 650.051 C 778.5 655.514 761.237 674.014 746.633 688.43 C 717.749 702.523 718.87 662.661 748.742 644.994 C 761.357 633.726 781.829 620.324 799.065 619.167 L 799.065 619.167 z"/>
<path transform="translate(0,0)" fill="url(#Gradient1)" d="M 799.065 619.167 C 807.589 621.65 843.052 608.916 869.215 616.559 L 869.215 625.132 C 846.925 617.548 803.66 628.903 799.065 619.167 L 799.065 619.167 z"/>
<path transform="translate(0,0)" fill="rgb(243,62,74)" d="M 1493.62 1638.75 C 1500.85 1632.75 1507.33 1630.36 1516.69 1629.68 C 1535.84 1631.37 1567.9 1639.31 1572.07 1661.47 C 1570.08 1681.82 1551.28 1686.99 1531.83 1695.8 C 1520.51 1700.93 1515.39 1694.99 1508.11 1686.3 C 1488.12 1671.1 1469.57 1663.72 1493.62 1638.75 z"/>
<path transform="translate(0,0)" fill="rgb(201,28,39)" d="M 1508.11 1686.3 C 1513.36 1682.88 1523.45 1685.41 1529.78 1683.02 C 1541.5 1678.59 1561.23 1659.81 1572.07 1661.47 C 1570.08 1681.82 1551.28 1686.99 1531.83 1695.8 C 1520.51 1700.93 1515.39 1694.99 1508.11 1686.3 z"/>
<path transform="translate(0,0)" fill="rgb(237,134,138)" d="M 1493.62 1638.75 C 1500.85 1632.75 1507.33 1630.36 1516.69 1629.68 C 1530.7 1643.07 1529.88 1655.55 1507.14 1653.42 C 1497.06 1652.47 1498.44 1645.5 1493.62 1638.75 z"/>
<path transform="translate(0,0)" fill="rgb(140,84,71)" d="M 952.589 700.011 C 957.088 701.696 962.36 703.636 967.113 704.277 L 967.113 704.277 C 969.427 711.317 977.193 722.691 977.414 728.735 L 958.273 725.605 C 946.898 722.76 935.14 721.716 923.723 718.737 C 922.412 713.035 914.663 705.367 911.296 700.011 C 924.825 700.167 939.188 698.96 952.589 700.011 z"/>
<path transform="translate(0,0)" fill="rgb(183,133,107)" d="M 952.589 700.011 C 957.088 701.696 962.36 703.636 967.113 704.277 L 967.113 704.277 C 969.427 711.317 977.193 722.691 977.414 728.735 L 958.273 725.605 C 963.104 722.747 954.128 704.485 952.589 700.011 z"/>
<path transform="translate(0,0)" fill="rgb(140,84,71)" d="M 869.215 696.318 C 878.124 692.602 888.42 695.13 897.707 696.318 L 897.707 696.318 C 902.239 697.436 906.756 699.066 911.296 700.011 L 911.296 700.011 C 914.663 705.367 922.412 713.035 923.723 718.737 C 918.57 717.929 913.324 718.353 908.153 718.737 C 891.644 714.174 878.597 712.213 869.215 696.318 z"/>
<path transform="translate(0,0)" fill="rgb(183,133,107)" d="M 897.707 696.318 C 902.239 697.436 906.756 699.066 911.296 700.011 L 911.296 700.011 C 914.663 705.367 922.412 713.035 923.723 718.737 C 918.57 717.929 913.324 718.353 908.153 718.737 C 904.513 711.328 901.062 703.861 897.707 696.318 z"/>
</svg>